<svg xmlns="http://www.w3.org/2000/svg" width="700" height="500"><rect width="700" height="500" x="0" y="0" fill="#FFFFFF" id="background"/><g id="viz"><g transform="translate(0,0)"><g transform="translate(10,20)"><g><path fill="#135ae1" d="M0,273.125L2.361111111111111,275.0416666666667C4.722222222222222,276.9583333333333,9.444444444444445,280.7916666666667,14.166666666666666,283.1875C18.88888888888889,285.5833333333333,23.61111111111111,286.5416666666667,28.333333333333332,287.5C33.05555555555555,288.4583333333333,37.77777777777778,289.4166666666667,42.5,283.6666666666667C47.22222222222222,277.9166666666667,51.944444444444436,265.4583333333333,56.666666666666664,266.4166666666667C61.38888888888889,267.375,66.11111111111111,281.75,73.19444444444446,283.6666666666667C80.27777777777779,285.5833333333333,89.72222222222223,275.0416666666667,96.80555555555556,276.9583333333333C103.8888888888889,278.875,108.6111111111111,293.25,113.33333333333333,287.5C118.05555555555554,281.75,122.77777777777777,255.875,127.5,259.2291666666667C132.22222222222223,262.5833333333333,136.94444444444446,295.1666666666667,141.66666666666666,311.4583333333333C146.38888888888889,327.75,151.11111111111111,327.75,155.83333333333334,315.7708333333333C160.55555555555554,303.7916666666667,165.27777777777777,279.8333333333333,169.99999999999997,266.4166666666667C174.7222222222222,253,179.44444444444443,250.125,184.16666666666666,258.2708333333333C188.88888888888889,266.4166666666667,193.61111111111111,285.5833333333333,198.33333333333334,291.8125C203.05555555555557,298.0416666666667,207.7777777777778,291.3333333333333,212.5,286.0625C217.2222222222222,280.7916666666667,221.94444444444443,276.9583333333333,226.66666666666663,270.7291666666667C231.38888888888889,264.5,236.11111111111111,255.875,240.83333333333334,256.3541666666667C245.55555555555557,256.8333333333333,250.2777777777778,266.4166666666667,255,264.9791666666667C259.72222222222223,263.5416666666667,264.4444444444444,251.08333333333334,269.1666666666667,252.04166666666666C273.88888888888886,253,278.61111111111114,267.375,283.3333333333333,268.3333333333333C288.0555555555556,269.2916666666667,292.77777777777777,256.8333333333333,299.86111111111114,247.72916666666666C306.94444444444446,238.625,316.3888888888889,232.875,323.47222222222223,237.66666666666666C330.5555555555556,242.45833333333334,335.27777777777777,257.7916666666667,340.00000000000006,268.8125C344.72222222222223,279.8333333333333,349.4444444444445,286.5416666666667,356.5277777777778,285.1041666666667C363.61111111111114,283.6666666666667,373.0555555555556,274.0833333333333,382.5,271.2083333333333C391.9444444444444,268.3333333333333,401.38888888888886,272.1666666666667,408.4722222222222,273.125C415.5555555555555,274.0833333333333,420.27777777777777,272.1666666666667,425,275.0416666666667C429.72222222222223,277.9166666666667,434.4444444444445,285.5833333333333,439.16666666666674,281.75C443.8888888888889,277.9166666666667,448.6111111111111,262.5833333333333,453.3333333333333,258.75C458.0555555555555,254.91666666666666,462.77777777777777,262.5833333333333,467.5,265.9375C472.22222222222223,269.2916666666667,476.9444444444445,268.3333333333333,481.66666666666674,264.5C486.3888888888889,260.6666666666667,491.1111111111111,253.95833333333334,495.8333333333333,255.875C500.5555555555555,257.7916666666667,505.27777777777777,268.3333333333333,512.3611111111112,267.375C519.4444444444445,266.4166666666667,528.8888888888888,253.95833333333334,535.9722222222222,257.3125C543.0555555555555,260.6666666666667,547.7777777777777,279.8333333333333,552.5,303.7916666666667C557.2222222222223,327.75,561.9444444444445,356.5,571.388888888889,351.7083333333333C580.8333333333334,346.9166666666667,595.0000000000001,308.5833333333333,604.4444444444445,283.6666666666667C613.8888888888889,258.75,618.6111111111111,247.25,623.3333333333334,276.82895833333333C628.0555555555555,306.4079166666666,632.7777777777777,377.0658333333333,637.5,391.9199999999999C642.2222222222223,406.7741666666666,646.9444444444445,365.8245833333333,651.6666666666666,360.683125C656.3888888888889,355.5416666666667,661.1111111111111,386.2083333333333,665.8333333333334,368.9583333333333C670.5555555555555,351.7083333333333,675.2777777777777,286.5416666666667,677.6388888888888,253.95833333333334L680,221.37499999999997L680,238.62500000000003L677.6388888888888,268.33333333333337C675.2777777777777,298.0416666666667,670.5555555555555,357.4583333333333,665.8333333333334,371.8333333333333C661.1111111111111,386.2083333333333,656.3888888888889,355.5416666666667,651.6666666666666,360.941875C646.9444444444445,366.3420833333333,642.2222222222223,407.8091666666666,637.5,394.8716666666666C632.7777777777777,381.9341666666666,628.0555555555555,314.5920833333333,623.3333333333334,288.5877083333333C618.6111111111111,262.5833333333333,613.8888888888889,277.9166666666667,604.4444444444445,302.8333333333333C595.0000000000001,327.75,580.8333333333334,362.25,571.388888888889,365.125C561.9444444444445,368,557.2222222222223,339.25,552.5,314.3333333333333C547.7777777777777,289.4166666666667,543.0555555555555,268.3333333333333,535.9722222222222,268.8125C528.8888888888888,269.2916666666667,519.4444444444445,291.3333333333333,512.3611111111111,291.3333333333333C505.27777777777777,291.3333333333333,500.5555555555555,269.2916666666667,495.83333333333326,261.625C491.1111111111111,253.95833333333334,486.3888888888889,260.6666666666667,481.6666666666667,267.375C476.9444444444445,274.0833333333333,472.22222222222223,280.7916666666667,467.5,277.4375C462.77777777777777,274.0833333333333,458.0555555555555,260.6666666666667,453.33333333333326,261.625C448.6111111111111,262.5833333333333,443.8888888888889,277.9166666666667,439.1666666666667,281.75C434.4444444444445,285.5833333333333,429.72222222222223,277.9166666666667,425,277.9166666666667C420.27777777777777,277.9166666666667,415.5555555555555,285.5833333333333,408.4722222222222,288.4583333333333C401.38888888888886,291.3333333333333,391.9444444444444,289.4166666666667,382.5,289.4166666666667C373.0555555555556,289.4166666666667,363.61111111111114,291.3333333333333,356.5277777777778,289.8958333333333C349.4444444444445,288.4583333333333,344.72222222222223,283.6666666666667,340,273.6041666666667C335.27777777777777,263.5416666666667,330.5555555555556,248.20833333333334,323.47222222222223,245.33333333333334C316.3888888888889,242.45833333333334,306.94444444444446,252.04166666666666,299.86111111111114,260.1875C292.77777777777777,268.3333333333333,288.0555555555556,275.0416666666667,283.3333333333333,278.875C278.61111111111114,282.7083333333333,273.88888888888886,283.6666666666667,269.1666666666667,284.625C264.4444444444444,285.5833333333333,259.72222222222223,286.5416666666667,254.99999999999997,282.2291666666667C250.2777777777778,277.9166666666667,245.55555555555557,268.3333333333333,240.83333333333337,266.8958333333333C236.11111111111111,265.4583333333333,231.38888888888889,272.1666666666667,226.66666666666666,280.3125C221.94444444444443,288.4583333333333,217.2222222222222,298.0416666666667,212.5,302.3541666666667C207.7777777777778,306.6666666666667,203.05555555555557,305.7083333333333,198.33333333333334,295.6458333333333C193.61111111111111,285.5833333333333,188.88888888888889,266.4166666666667,184.16666666666666,258.2708333333333C179.44444444444443,250.125,174.7222222222222,253,170,267.375C165.27777777777777,281.75,160.55555555555554,307.625,155.83333333333334,319.6041666666667C151.11111111111111,331.5833333333333,146.38888888888889,329.6666666666667,141.66666666666666,316.25C136.94444444444446,302.8333333333333,132.22222222222223,277.9166666666667,127.50000000000001,277.4375C122.77777777777777,276.9583333333333,118.05555555555554,300.9166666666667,113.33333333333331,304.75C108.6111111111111,308.5833333333333,103.8888888888889,292.2916666666667,96.80555555555556,287.5C89.72222222222223,282.7083333333333,80.27777777777779,289.4166666666667,73.19444444444446,286.5416666666667C66.11111111111111,283.6666666666667,61.38888888888889,271.2083333333333,56.666666666666664,271.2083333333333C51.944444444444436,271.2083333333333,47.22222222222222,283.6666666666667,42.5,288.4583333333333C37.77777777777778,293.25,33.05555555555555,290.375,28.33333333333333,290.375C23.61111111111111,290.375,18.88888888888889,293.25,14.166666666666666,290.8541666666667C9.444444444444445,288.4583333333333,4.722222222222222,280.7916666666667,2.361111111111111,276.9583333333333L0,273.125Z"><title> Pie </title></path><path fill="#2197ff" d="M0,186.875L2.361111111111111,183.04166666666666C4.722222222222222,179.20833333333334,9.444444444444445,171.54166666666666,14.166666666666666,169.14583333333331C18.88888888888889,166.74999999999997,23.61111111111111,169.625,28.333333333333332,169.625C33.05555555555555,169.625,37.77777777777778,166.74999999999997,42.5,171.54166666666666C47.22222222222222,176.33333333333334,51.944444444444436,188.79166666666666,56.666666666666664,188.79166666666666C61.38888888888889,188.79166666666666,66.11111111111111,176.33333333333334,73.19444444444446,173.45833333333334C80.27777777777779,170.58333333333331,89.72222222222223,177.29166666666666,96.80555555555556,172.5C103.8888888888889,167.70833333333334,108.6111111111111,151.41666666666666,113.33333333333333,155.24999999999997C118.05555555555554,159.0833333333333,122.77777777777777,183.04166666666663,127.5,182.5625C132.22222222222223,182.08333333333334,136.94444444444446,157.16666666666666,141.66666666666666,143.75C146.38888888888889,130.33333333333334,151.11111111111111,128.41666666666666,155.83333333333334,140.39583333333334C160.55555555555554,152.375,165.27777777777777,178.25,169.99999999999997,192.625C174.7222222222222,207,179.44444444444443,209.875,184.16666666666666,201.72916666666666C188.88888888888889,193.58333333333334,193.61111111111111,174.41666666666666,198.33333333333334,176.8125C203.05555555555557,179.20833333333334,207.7777777777778,203.16666666666666,212.5,207.47916666666666C217.2222222222222,211.79166666666666,221.94444444444443,196.45833333333334,226.66666666666663,192.14583333333334C231.38888888888889,187.83333333333334,236.11111111111111,194.54166666666666,240.83333333333334,193.10416666666666C245.55555555555557,191.66666666666666,250.2777777777778,182.08333333333334,255,177.77083333333334C259.72222222222223,173.45833333333334,264.4444444444444,174.41666666666666,269.1666666666667,175.375C273.88888888888886,176.33333333333334,278.61111111111114,177.29166666666666,283.3333333333333,181.125C288.0555555555556,184.95833333333334,292.77777777777777,191.66666666666666,299.86111111111114,200.77083333333334C306.94444444444446,209.875,316.3888888888889,221.375,323.47222222222223,218.5C330.5555555555556,215.625,335.27777777777777,198.375,340.00000000000006,187.3541666666667C344.72222222222223,176.33333333333337,349.4444444444445,171.5416666666667,356.5277777777778,170.10416666666669C363.61111111111114,168.66666666666669,373.0555555555556,170.58333333333334,382.5,184C391.9444444444444,197.41666666666666,401.38888888888886,222.33333333333334,408.4722222222222,225.20833333333334C415.5555555555555,228.08333333333334,420.27777777777777,208.91666666666666,425,195.5C429.72222222222223,182.08333333333334,434.4444444444445,174.41666666666666,439.16666666666674,178.25C443.8888888888889,182.08333333333334,448.6111111111111,197.41666666666666,453.3333333333333,198.375C458.0555555555555,199.33333333333334,462.77777777777777,185.91666666666666,467.5,182.5625C472.22222222222223,179.20833333333334,476.9444444444445,185.91666666666666,481.66666666666674,192.625C486.3888888888889,199.33333333333334,491.1111111111111,206.04166666666666,495.8333333333333,211.79166666666666C500.5555555555555,217.54166666666666,505.27777777777777,222.33333333333334,512.3611111111112,228.08333333333334C519.4444444444445,233.83333333333334,528.8888888888888,240.54166666666666,535.9722222222222,227.60416666666666C543.0555555555555,214.66666666666666,547.7777777777777,182.08333333333334,552.5,151.41666666666666C557.2222222222223,120.74999999999999,561.9444444444445,91.99999999999999,571.388888888889,115.95833333333331C580.8333333333334,139.91666666666666,595.0000000000001,216.58333333333334,604.4444444444445,241.5C613.8888888888889,266.4166666666667,618.6111111111111,239.58333333333334,623.3333333333334,192.495625C628.0555555555555,145.40791666666667,632.7777777777777,78.06583333333332,637.5,65.12833333333332C642.2222222222223,52.19083333333331,646.9444444444445,93.65791666666665,651.6666666666666,99.05812499999998C656.3888888888889,104.45833333333331,661.1111111111111,73.79166666666666,665.8333333333334,91.04166666666667C670.5555555555555,108.29166666666667,675.2777777777777,173.45833333333334,677.6388888888888,206.0416666666667L680,238.62500000000003L680,238.62500000000003L677.6388888888888,268.33333333333337C675.2777777777777,298.0416666666667,670.5555555555555,357.4583333333333,665.8333333333334,368C661.1111111111111,378.5416666666667,656.3888888888889,340.2083333333333,651.6666666666666,345.3497916666667C646.9444444444445,350.49125,642.2222222222223,399.1074999999999,637.5,388.0866666666666C632.7777777777777,377.0658333333333,628.0555555555555,306.4079166666666,623.3333333333334,280.66229166666665C618.6111111111111,254.91666666666666,613.8888888888889,274.0833333333333,604.4444444444445,299C595.0000000000001,323.9166666666667,580.8333333333334,354.5833333333333,571.388888888889,355.5416666666667C561.9444444444445,356.5,557.2222222222223,327.75,552.5,304.75C547.7777777777777,281.75,543.0555555555555,264.5,535.9722222222222,261.1458333333333C528.8888888888888,257.7916666666667,519.4444444444445,268.3333333333333,512.3611111111111,268.3333333333333C505.27777777777777,268.3333333333333,500.5555555555555,257.7916666666667,495.83333333333326,255.875C491.1111111111111,253.95833333333334,486.3888888888889,260.6666666666667,481.6666666666667,264.5C476.9444444444445,268.3333333333333,472.22222222222223,269.2916666666667,467.5,265.9375C462.77777777777777,262.5833333333333,458.0555555555555,254.91666666666666,453.33333333333326,258.75C448.6111111111111,262.5833333333333,443.8888888888889,277.9166666666667,439.1666666666667,281.75C434.4444444444445,285.5833333333333,429.72222222222223,277.9166666666667,425,275.0416666666667C420.27777777777777,272.1666666666667,415.5555555555555,274.0833333333333,408.4722222222222,273.125C401.38888888888886,272.1666666666667,391.9444444444444,268.3333333333333,382.5,271.2083333333333C373.0555555555556,274.0833333333333,363.61111111111114,283.6666666666667,356.5277777777778,285.1041666666667C349.4444444444445,286.5416666666667,344.72222222222223,279.8333333333333,340,269.7708333333333C335.27777777777777,259.7083333333333,330.5555555555556,246.29166666666666,323.47222222222223,241.5C316.3888888888889,236.70833333333334,306.94444444444446,240.54166666666666,299.86111111111114,248.6875C292.77777777777777,256.8333333333333,288.0555555555556,269.2916666666667,283.3333333333333,268.3333333333333C278.61111111111114,267.375,273.88888888888886,253,269.1666666666667,252.04166666666666C264.4444444444444,251.08333333333334,259.72222222222223,263.5416666666667,254.99999999999997,264.9791666666667C250.2777777777778,266.4166666666667,245.55555555555557,256.8333333333333,240.83333333333337,256.3541666666667C236.11111111111111,255.875,231.38888888888889,264.5,226.66666666666666,270.7291666666667C221.94444444444443,276.9583333333333,217.2222222222222,280.7916666666667,212.5,286.0625C207.7777777777778,291.3333333333333,203.05555555555557,298.0416666666667,198.33333333333334,291.8125C193.61111111111111,285.5833333333333,188.88888888888889,266.4166666666667,184.16666666666666,258.2708333333333C179.44444444444443,250.125,174.7222222222222,253,170,266.4166666666667C165.27777777777777,279.8333333333333,160.55555555555554,303.7916666666667,155.83333333333334,315.7708333333333C151.11111111111111,327.75,146.38888888888889,327.75,141.66666666666666,311.4583333333333C136.94444444444446,295.1666666666667,132.22222222222223,262.5833333333333,127.50000000000001,253.47916666666666C122.77777777777777,244.375,118.05555555555554,258.75,113.33333333333331,259.7083333333333C108.6111111111111,260.6666666666667,103.8888888888889,248.20833333333334,96.80555555555556,252.04166666666666C89.72222222222223,255.875,80.27777777777779,276,73.19444444444446,278.875C66.11111111111111,281.75,61.38888888888889,267.375,56.666666666666664,266.4166666666667C51.944444444444436,265.4583333333333,47.22222222222222,277.9166666666667,42.5,283.6666666666667C37.77777777777778,289.4166666666667,33.05555555555555,288.4583333333333,28.33333333333333,279.8333333333333C23.61111111111111,271.2083333333333,18.88888888888889,254.91666666666666,14.166666666666666,252.52083333333334C9.444444444444445,250.125,4.722222222222222,261.625,2.361111111111111,267.375L0,273.125Z"><title> Auto </title></path><path fill="#9852d9" d="M0,273.125L2.361111111111111,267.375C4.722222222222222,261.625,9.444444444444445,250.125,14.166666666666666,252.52083333333334C18.88888888888889,254.91666666666666,23.61111111111111,271.2083333333333,28.333333333333332,280.7916666666667C33.05555555555555,290.375,37.77777777777778,293.25,42.5,288.4583333333333C47.22222222222222,283.6666666666667,51.944444444444436,271.2083333333333,56.666666666666664,271.2083333333333C61.38888888888889,271.2083333333333,66.11111111111111,283.6666666666667,73.19444444444446,286.5416666666667C80.27777777777779,289.4166666666667,89.72222222222223,282.7083333333333,96.80555555555556,287.5C103.8888888888889,292.2916666666667,108.6111111111111,308.5833333333333,113.33333333333333,304.75C118.05555555555554,300.9166666666667,122.77777777777777,276.9583333333333,127.5,277.4375C132.22222222222223,277.9166666666667,136.94444444444446,302.8333333333333,141.66666666666666,316.25C146.38888888888889,329.6666666666667,151.11111111111111,331.5833333333333,155.83333333333334,319.6041666666667C160.55555555555554,307.625,165.27777777777777,281.75,169.99999999999997,267.375C174.7222222222222,253,179.44444444444443,250.125,184.16666666666666,258.2708333333333C188.88888888888889,266.4166666666667,193.61111111111111,285.5833333333333,198.33333333333334,269.7708333333333C203.05555555555557,253.95833333333334,207.7777777777778,203.16666666666666,212.5,198.85416666666666C217.2222222222222,194.54166666666666,221.94444444444443,236.70833333333334,226.66666666666663,254.4375C231.38888888888889,272.1666666666667,236.11111111111111,265.4583333333333,240.83333333333334,266.8958333333333C245.55555555555557,268.3333333333333,250.2777777777778,277.9166666666667,255,282.2291666666667C259.72222222222223,286.5416666666667,264.4444444444444,285.5833333333333,269.1666666666667,284.625C273.88888888888886,283.6666666666667,278.61111111111114,282.7083333333333,283.3333333333333,278.875C288.0555555555556,275.0416666666667,292.77777777777777,268.3333333333333,299.86111111111114,260.1875C306.94444444444446,252.04166666666666,316.3888888888889,242.45833333333334,323.47222222222223,245.33333333333334C330.5555555555556,248.20833333333334,335.27777777777777,263.5416666666667,340.00000000000006,273.6041666666667C344.72222222222223,283.6666666666667,349.4444444444445,288.4583333333333,356.5277777777778,289.8958333333333C363.61111111111114,291.3333333333333,373.0555555555556,289.4166666666667,382.5,268.3333333333333C391.9444444444444,247.25,401.38888888888886,207,408.4722222222222,204.125C415.5555555555555,201.25,420.27777777777777,235.75,425,256.8333333333333C429.72222222222223,277.9166666666667,434.4444444444445,285.5833333333333,439.16666666666674,281.75C443.8888888888889,277.9166666666667,448.6111111111111,262.5833333333333,453.3333333333333,261.625C458.0555555555555,260.6666666666667,462.77777777777777,274.0833333333333,467.5,277.4375C472.22222222222223,280.7916666666667,476.9444444444445,274.0833333333333,481.66666666666674,267.375C486.3888888888889,260.6666666666667,491.1111111111111,253.95833333333334,495.8333333333333,233.83333333333334C500.5555555555555,213.70833333333334,505.27777777777777,180.16666666666666,512.3611111111112,180.16666666666666C519.4444444444445,180.16666666666666,528.8888888888888,213.70833333333334,535.9722222222222,241.02083333333334C543.0555555555555,268.3333333333333,547.7777777777777,289.4166666666667,552.5,314.3333333333333C557.2222222222223,339.25,561.9444444444445,368,571.388888888889,344.0416666666667C580.8333333333334,320.0833333333333,595.0000000000001,243.41666666666666,604.4444444444445,218.5C613.8888888888889,193.58333333333334,618.6111111111111,220.41666666666666,623.3333333333334,267.504375C628.0555555555555,314.5920833333333,632.7777777777777,381.9341666666666,637.5,394.8716666666666C642.2222222222223,407.8091666666666,646.9444444444445,366.3420833333333,651.6666666666666,360.941875C656.3888888888889,355.5416666666667,661.1111111111111,386.2083333333333,665.8333333333334,371.8333333333333C670.5555555555555,357.4583333333333,675.2777777777777,298.0416666666667,677.6388888888888,268.3333333333333L680,238.62500000000003L680,238.62500000000003L677.6388888888888,268.33333333333337C675.2777777777777,298.0416666666667,670.5555555555555,357.4583333333333,665.8333333333334,371.8333333333333C661.1111111111111,386.2083333333333,656.3888888888889,355.5416666666667,651.6666666666666,360.941875C646.9444444444445,366.3420833333333,642.2222222222223,407.8091666666666,637.5,394.8716666666666C632.7777777777777,381.9341666666666,628.0555555555555,314.5920833333333,623.3333333333334,284.754375C618.6111111111111,254.91666666666666,613.8888888888889,262.5833333333333,604.4444444444445,287.5C595.0000000000001,312.4166666666667,580.8333333333334,354.5833333333333,571.388888888889,361.2916666666667C561.9444444444445,368,557.2222222222223,339.25,552.5,314.3333333333333C547.7777777777777,289.4166666666667,543.0555555555555,268.3333333333333,535.9722222222222,254.4375C528.8888888888888,240.54166666666666,519.4444444444445,233.83333333333334,512.3611111111111,233.83333333333334C505.27777777777777,233.83333333333334,500.5555555555555,240.54166666666666,495.83333333333326,247.25C491.1111111111111,253.95833333333334,486.3888888888889,260.6666666666667,481.6666666666667,267.375C476.9444444444445,274.0833333333333,472.22222222222223,280.7916666666667,467.5,277.4375C462.77777777777777,274.0833333333333,458.0555555555555,260.6666666666667,453.33333333333326,261.625C448.6111111111111,262.5833333333333,443.8888888888889,277.9166666666667,439.1666666666667,281.75C434.4444444444445,285.5833333333333,429.72222222222223,277.9166666666667,425,270.25C420.27777777777777,262.5833333333333,415.5555555555555,254.91666666666666,408.4722222222222,257.7916666666667C401.38888888888886,260.6666666666667,391.9444444444444,274.0833333333333,382.5,281.75C373.0555555555556,289.4166666666667,363.61111111111114,291.3333333333333,356.5277777777778,289.8958333333333C349.4444444444445,288.4583333333333,344.72222222222223,283.6666666666667,340,273.6041666666667C335.27777777777777,263.5416666666667,330.5555555555556,248.20833333333334,323.47222222222223,245.33333333333334C316.3888888888889,242.45833333333334,306.94444444444446,252.04166666666666,299.86111111111114,260.1875C292.77777777777777,268.3333333333333,288.0555555555556,275.0416666666667,283.3333333333333,278.875C278.61111111111114,282.7083333333333,273.88888888888886,283.6666666666667,269.1666666666667,284.625C264.4444444444444,285.5833333333333,259.72222222222223,286.5416666666667,254.99999999999997,282.2291666666667C250.2777777777778,277.9166666666667,245.55555555555557,268.3333333333333,240.83333333333337,266.8958333333333C236.11111111111111,265.4583333333333,231.38888888888889,272.1666666666667,226.66666666666666,266.8958333333333C221.94444444444443,261.625,217.2222222222222,244.375,212.5,248.6875C207.7777777777778,253,203.05555555555557,278.875,198.33333333333334,282.2291666666667C193.61111111111111,285.5833333333333,188.88888888888889,266.4166666666667,184.16666666666666,258.2708333333333C179.44444444444443,250.125,174.7222222222222,253,170,267.375C165.27777777777777,281.75,160.55555555555554,307.625,155.83333333333334,319.6041666666667C151.11111111111111,331.5833333333333,146.38888888888889,329.6666666666667,141.66666666666666,316.25C136.94444444444446,302.8333333333333,132.22222222222223,277.9166666666667,127.50000000000001,277.4375C122.77777777777777,276.9583333333333,118.05555555555554,300.9166666666667,113.33333333333331,304.75C108.6111111111111,308.5833333333333,103.8888888888889,292.2916666666667,96.80555555555556,287.5C89.72222222222223,282.7083333333333,80.27777777777779,289.4166666666667,73.19444444444446,286.5416666666667C66.11111111111111,283.6666666666667,61.38888888888889,271.2083333333333,56.666666666666664,271.2083333333333C51.944444444444436,271.2083333333333,47.22222222222222,283.6666666666667,42.5,288.4583333333333C37.77777777777778,293.25,33.05555555555555,290.375,28.33333333333333,288.4583333333333C23.61111111111111,286.5416666666667,18.88888888888889,285.5833333333333,14.166666666666666,283.1875C9.444444444444445,280.7916666666667,4.722222222222222,276.9583333333333,2.361111111111111,275.0416666666667L0,273.125Z"><title> Subte </title></path><path fill="#f54e8b" d="M0,273.125L2.361111111111111,276.9583333333333C4.722222222222222,280.7916666666667,9.444444444444445,288.4583333333333,14.166666666666666,290.8541666666667C18.88888888888889,293.25,23.61111111111111,290.375,28.333333333333332,290.375C33.05555555555555,290.375,37.77777777777778,293.25,42.5,288.4583333333333C47.22222222222222,283.6666666666667,51.944444444444436,271.2083333333333,56.666666666666664,271.2083333333333C61.38888888888889,271.2083333333333,66.11111111111111,283.6666666666667,73.19444444444446,279.8333333333333C80.27777777777779,276,89.72222222222223,255.875,96.80555555555556,252.04166666666666C103.8888888888889,248.20833333333334,108.6111111111111,260.6666666666667,113.33333333333333,263.5416666666667C118.05555555555554,266.4166666666667,122.77777777777777,259.7083333333333,127.5,268.8125C132.22222222222223,277.9166666666667,136.94444444444446,302.8333333333333,141.66666666666666,316.25C146.38888888888889,329.6666666666667,151.11111111111111,331.5833333333333,155.83333333333334,319.6041666666667C160.55555555555554,307.625,165.27777777777777,281.75,169.99999999999997,267.375C174.7222222222222,253,179.44444444444443,250.125,184.16666666666666,258.2708333333333C188.88888888888889,266.4166666666667,193.61111111111111,285.5833333333333,198.33333333333334,295.6458333333333C203.05555555555557,305.7083333333333,207.7777777777778,306.6666666666667,212.5,302.3541666666667C217.2222222222222,298.0416666666667,221.94444444444443,288.4583333333333,226.66666666666663,280.3125C231.38888888888889,272.1666666666667,236.11111111111111,265.4583333333333,240.83333333333334,266.8958333333333C245.55555555555557,268.3333333333333,250.2777777777778,277.9166666666667,255,282.2291666666667C259.72222222222223,286.5416666666667,264.4444444444444,285.5833333333333,269.1666666666667,284.625C273.88888888888886,283.6666666666667,278.61111111111114,282.7083333333333,283.3333333333333,278.875C288.0555555555556,275.0416666666667,292.77777777777777,268.3333333333333,299.86111111111114,260.1875C306.94444444444446,252.04166666666666,316.3888888888889,242.45833333333334,323.47222222222223,245.33333333333334C330.5555555555556,248.20833333333334,335.27777777777777,263.5416666666667,340.00000000000006,273.6041666666667C344.72222222222223,283.6666666666667,349.4444444444445,288.4583333333333,356.5277777777778,289.8958333333333C363.61111111111114,291.3333333333333,373.0555555555556,289.4166666666667,382.5,289.4166666666667C391.9444444444444,289.4166666666667,401.38888888888886,291.3333333333333,408.4722222222222,288.4583333333333C415.5555555555555,285.5833333333333,420.27777777777777,277.9166666666667,425,277.9166666666667C429.72222222222223,277.9166666666667,434.4444444444445,285.5833333333333,439.16666666666674,281.75C443.8888888888889,277.9166666666667,448.6111111111111,262.5833333333333,453.3333333333333,261.625C458.0555555555555,260.6666666666667,462.77777777777777,274.0833333333333,467.5,277.4375C472.22222222222223,280.7916666666667,476.9444444444445,274.0833333333333,481.66666666666674,267.375C486.3888888888889,260.6666666666667,491.1111111111111,253.95833333333334,495.8333333333333,261.625C500.5555555555555,269.2916666666667,505.27777777777777,291.3333333333333,512.3611111111112,285.5833333333333C519.4444444444445,279.8333333333333,528.8888888888888,246.29166666666666,535.9722222222222,245.8125C543.0555555555555,245.33333333333334,547.7777777777777,277.9166666666667,552.5,308.5833333333333C557.2222222222223,339.25,561.9444444444445,368,571.388888888889,365.125C580.8333333333334,362.25,595.0000000000001,327.75,604.4444444444445,302.8333333333333C613.8888888888889,277.9166666666667,618.6111111111111,262.5833333333333,623.3333333333334,288.5877083333333C628.0555555555555,314.5920833333333,632.7777777777777,381.9341666666666,637.5,391.03833333333324C642.2222222222223,400.1424999999999,646.9444444444445,351.00874999999996,651.6666666666666,345.60854166666667C656.3888888888889,340.2083333333333,661.1111111111111,378.5416666666667,665.8333333333334,368C670.5555555555555,357.4583333333333,675.2777777777777,298.0416666666667,677.6388888888888,268.3333333333333L680,238.62500000000003L680,238.62500000000003L677.6388888888888,268.33333333333337C675.2777777777777,298.0416666666667,670.5555555555555,357.4583333333333,665.8333333333334,371.8333333333333C661.1111111111111,386.2083333333333,656.3888888888889,355.5416666666667,651.6666666666666,360.941875C646.9444444444445,366.3420833333333,642.2222222222223,407.8091666666666,637.5,394.8716666666666C632.7777777777777,381.9341666666666,628.0555555555555,314.5920833333333,623.3333333333334,288.5877083333333C618.6111111111111,262.5833333333333,613.8888888888889,277.9166666666667,604.4444444444445,302.8333333333333C595.0000000000001,327.75,580.8333333333334,362.25,571.388888888889,365.125C561.9444444444445,368,557.2222222222223,339.25,552.5,313.375C547.7777777777777,287.5,543.0555555555555,264.5,535.9722222222222,264.9791666666667C528.8888888888888,265.4583333333333,519.4444444444445,289.4166666666667,512.3611111111111,290.375C505.27777777777777,291.3333333333333,500.5555555555555,269.2916666666667,495.83333333333326,261.625C491.1111111111111,253.95833333333334,486.3888888888889,260.6666666666667,481.6666666666667,267.375C476.9444444444445,274.0833333333333,472.22222222222223,280.7916666666667,467.5,277.4375C462.77777777777777,274.0833333333333,458.0555555555555,260.6666666666667,453.33333333333326,261.625C448.6111111111111,262.5833333333333,443.8888888888889,277.9166666666667,439.1666666666667,281.75C434.4444444444445,285.5833333333333,429.72222222222223,277.9166666666667,425,277.9166666666667C420.27777777777777,277.9166666666667,415.5555555555555,285.5833333333333,408.4722222222222,288.4583333333333C401.38888888888886,291.3333333333333,391.9444444444444,289.4166666666667,382.5,289.4166666666667C373.0555555555556,289.4166666666667,363.61111111111114,291.3333333333333,356.5277777777778,289.8958333333333C349.4444444444445,288.4583333333333,344.72222222222223,283.6666666666667,340,273.6041666666667C335.27777777777777,263.5416666666667,330.5555555555556,248.20833333333334,323.47222222222223,245.33333333333334C316.3888888888889,242.45833333333334,306.94444444444446,252.04166666666666,299.86111111111114,260.1875C292.77777777777777,268.3333333333333,288.0555555555556,275.0416666666667,283.3333333333333,278.875C278.61111111111114,282.7083333333333,273.88888888888886,283.6666666666667,269.1666666666667,284.625C264.4444444444444,285.5833333333333,259.72222222222223,286.5416666666667,254.99999999999997,282.2291666666667C250.2777777777778,277.9166666666667,245.55555555555557,268.3333333333333,240.83333333333337,266.8958333333333C236.11111111111111,265.4583333333333,231.38888888888889,272.1666666666667,226.66666666666666,280.3125C221.94444444444443,288.4583333333333,217.2222222222222,298.0416666666667,212.5,302.3541666666667C207.7777777777778,306.6666666666667,203.05555555555557,305.7083333333333,198.33333333333334,295.6458333333333C193.61111111111111,285.5833333333333,188.88888888888889,266.4166666666667,184.16666666666666,258.2708333333333C179.44444444444443,250.125,174.7222222222222,253,170,267.375C165.27777777777777,281.75,160.55555555555554,307.625,155.83333333333334,319.6041666666667C151.11111111111111,331.5833333333333,146.38888888888889,329.6666666666667,141.66666666666666,316.25C136.94444444444446,302.8333333333333,132.22222222222223,277.9166666666667,127.50000000000001,274.5625C122.77777777777777,271.2083333333333,118.05555555555554,289.4166666666667,113.33333333333331,291.3333333333333C108.6111111111111,293.25,103.8888888888889,278.875,96.80555555555556,276.9583333333333C89.72222222222223,275.0416666666667,80.27777777777779,285.5833333333333,73.19444444444446,284.625C66.11111111111111,283.6666666666667,61.38888888888889,271.2083333333333,56.666666666666664,271.2083333333333C51.944444444444436,271.2083333333333,47.22222222222222,283.6666666666667,42.5,288.4583333333333C37.77777777777778,293.25,33.05555555555555,290.375,28.33333333333333,290.375C23.61111111111111,290.375,18.88888888888889,293.25,14.166666666666666,290.8541666666667C9.444444444444445,288.4583333333333,4.722222222222222,280.7916666666667,2.361111111111111,276.9583333333333L0,273.125Z"><title> Colectivo </title></path></g><g id="xAxis" transform="translate(0,460)" fill="none" font-size="10" font-family="sans-serif" text-anchor="middle"><path class="domain" stroke="currentColor" d="M0,0H680"/><g class="tick" opacity="1" transform="translate(70.83333333333334,0)"><line stroke="currentColor" y2="6"/><text fill="currentColor" y="9" dy="0.71em">Jul 06</text></g><g class="tick" opacity="1" transform="translate(170,0)"><line stroke="currentColor" y2="6"/><text fill="currentColor" y="9" dy="0.71em">Jul 13</text></g><g class="tick" opacity="1" transform="translate(269.16666666666663,0)"><line stroke="currentColor" y2="6"/><text fill="currentColor" y="9" dy="0.71em">Jul 20</text></g><g class="tick" opacity="1" transform="translate(368.3333333333333,0)"><line stroke="currentColor" y2="6"/><text fill="currentColor" y="9" dy="0.71em">Jul 27</text></g><g class="tick" opacity="1" transform="translate(467.5,0)"><line stroke="currentColor" y2="6"/><text fill="currentColor" y="9" dy="0.71em">Aug 03</text></g><g class="tick" opacity="1" transform="translate(566.6666666666667,0)"><line stroke="currentColor" y2="6"/><text fill="currentColor" y="9" dy="0.71em">Aug 10</text></g><g class="tick" opacity="1" transform="translate(665.8333333333333,0)"><line stroke="currentColor" y2="6"/><text fill="currentColor" y="9" dy="0.71em">Aug 17</text></g></g><text y="456" x="680" text-anchor="end" style="font-family: Arial, sans-serif; font-size: 12px; fill: rgb(123, 123, 123); font-weight: bold;">Fecha</text><text x="4" text-anchor="start" dominant-baseline="hanging" style="font-family: Arial, sans-serif; font-size: 12px; fill: rgb(123, 123, 123); font-weight: bold;"> Distancia_km </text><g id="labels"><text x="269.16666666666663" y="261.625" text-anchor="middle" alignment-baseline="middle" style="font-family: Arial, sans-serif; font-size: 10px; fill: black; font-weight: bold; stroke-width: 2px; paint-order: stroke; stroke: white; stroke-linecap: round; stroke-linejoin: round;"> Pie </text><text x="637.5" y="229.22374999999997" text-anchor="middle" alignment-baseline="middle" style="font-family: Arial, sans-serif; font-size: 10px; fill: black; font-weight: bold; stroke-width: 2px; paint-order: stroke; stroke: white; stroke-linecap: round; stroke-linejoin: round;"> Auto </text><text x="609.1666666666667" y="218.5" text-anchor="middle" alignment-baseline="middle" style="font-family: Arial, sans-serif; font-size: 10px; fill: black; font-weight: bold; stroke-width: 2px; paint-order: stroke; stroke: white; stroke-linecap: round; stroke-linejoin: round;"> Subte </text><text x="113.33333333333333" y="290.375" text-anchor="middle" alignment-baseline="middle" style="font-family: Arial, sans-serif; font-size: 10px; fill: black; font-weight: bold; stroke-width: 2px; paint-order: stroke; stroke: white; stroke-linecap: round; stroke-linejoin: round;"> Colectivo </text></g></g><text x="4" y="4" style="font-family: Arial, sans-serif; font-size: 12px; fill: black; font-weight: bold; dominant-baseline: hanging;"/></g></g></svg>