<svg xmlns="http://www.w3.org/2000/svg" width="700" height="500"><rect width="700" height="500" x="0" y="0" fill="#FFFFFF" id="background"/><g id="viz"><g transform="translate(0,0)"><g transform="translate(10,20)"><g><path fill="rgb(190, 229, 160)" d="M0,460C7.083333333333333,460,7.083333333333333,388.85,14.166666666666666,388.85C21.25,388.85,21.25,460,28.333333333333332,460C35.416666666666664,460,35.416666666666664,441.59999999999997,42.5,441.59999999999997C49.58333333333333,441.59999999999997,49.58333333333333,439.29999999999995,56.666666666666664,439.29999999999995C63.75,439.29999999999995,63.75,460,70.83333333333334,460C85,460,85,343,99.16666666666667,343C106.25,343,106.25,360.1,113.33333333333333,360.1C120.41666666666666,360.1,120.41666666666666,372.75,127.5,372.75C134.58333333333334,372.75,134.58333333333334,460,141.66666666666669,460C148.75,460,148.75,447.35,155.83333333333331,447.35C162.91666666666666,447.35,162.91666666666666,460,170,460C177.08333333333331,460,177.08333333333331,460,184.16666666666666,460C191.25,460,191.25,460,198.33333333333334,460C205.41666666666669,460,205.41666666666669,309.65,212.5,309.65C219.58333333333331,309.65,219.58333333333331,443.9,226.66666666666666,443.9C233.75,443.9,233.75,432.4,240.83333333333334,432.4C247.91666666666669,432.4,247.91666666666669,431.25,255,431.25C262.0833333333333,431.25,262.0833333333333,275,269.16666666666663,275C276.25,275,276.25,460,283.33333333333337,460C290.4166666666667,460,290.4166666666667,342.85,297.5,342.85C311.6666666666667,342.85,311.6666666666667,426.79999999999995,325.83333333333337,426.79999999999995C332.9166666666667,426.79999999999995,332.9166666666667,439.29999999999995,340,439.29999999999995C347.08333333333337,439.29999999999995,347.08333333333337,460,354.1666666666667,460C368.33333333333337,460,368.33333333333337,333.8,382.5,333.8C396.66666666666663,333.8,396.66666666666663,343,410.8333333333333,343C417.91666666666663,343,417.91666666666663,460,425,460C432.08333333333337,460,432.08333333333337,460,439.1666666666667,460C446.25,460,446.25,460,453.3333333333333,460C460.41666666666663,460,460.41666666666663,408.25,467.5,408.25C474.58333333333337,408.25,474.58333333333337,460,481.6666666666667,460C488.75,460,488.75,460,495.8333333333333,460C502.91666666666663,460,502.91666666666663,268.40000000000003,510,268.40000000000003C524.1666666666666,268.40000000000003,524.1666666666666,356.8,538.3333333333333,356.8C545.4166666666666,356.8,545.4166666666666,414,552.5,414C559.5833333333334,414,559.5833333333334,421.05,566.6666666666667,421.05C587.9166666666667,421.05,587.9166666666667,323.45,609.1666666666667,323.45C616.25,323.45,616.25,414.15,623.3333333333333,414.15C630.4166666666666,414.15,630.4166666666666,445.2,637.5,445.2C644.5833333333334,445.2,644.5833333333334,460,651.6666666666667,460C658.75,460,658.75,460,665.8333333333333,460C672.9166666666666,460,672.9166666666666,419.75,680,419.75L680,460C672.9166666666666,460,672.9166666666666,460,665.8333333333333,460C658.75,460,658.75,460,651.6666666666667,460C644.5833333333334,460,644.5833333333334,459,637.5,459C630.4166666666666,459,630.4166666666666,442.9,623.3333333333333,442.9C616.25,442.9,616.25,400.5,609.1666666666667,400.5C587.9166666666667,400.5,587.9166666666667,459,566.6666666666667,459C559.5833333333334,459,559.5833333333334,460,552.5,460C545.4166666666666,460,545.4166666666666,429.25,538.3333333333333,429.25C524.1666666666666,429.25,524.1666666666666,379.95,510,379.95C502.91666666666663,379.95,502.91666666666663,460,495.8333333333333,460C488.75,460,488.75,460,481.6666666666667,460C474.58333333333337,460,474.58333333333337,460,467.5,460C460.41666666666663,460,460.41666666666663,460,453.3333333333333,460C446.25,460,446.25,460,439.1666666666667,460C432.08333333333337,460,432.08333333333337,460,425,460C417.91666666666663,460,417.91666666666663,394.75,410.8333333333333,394.75C396.66666666666663,394.75,396.66666666666663,401.65,382.5,401.65C368.33333333333337,401.65,368.33333333333337,460,354.1666666666667,460C347.08333333333337,460,347.08333333333337,460,340,460C332.9166666666667,460,332.9166666666667,459,325.83333333333337,459C311.6666666666667,459,311.6666666666667,423.34999999999997,297.5,423.34999999999997C290.4166666666667,423.34999999999997,290.4166666666667,460,283.33333333333337,460C276.25,460,276.25,422.20000000000005,269.16666666666663,422.20000000000005C262.0833333333333,422.20000000000005,262.0833333333333,460,255,460C247.91666666666669,460,247.91666666666669,460,240.83333333333334,460C233.75,460,233.75,460,226.66666666666666,460C219.58333333333331,460,219.58333333333331,382.09999999999997,212.5,382.09999999999997C205.41666666666669,382.09999999999997,205.41666666666669,460,198.33333333333334,460C191.25,460,191.25,460,184.16666666666666,460C177.08333333333331,460,177.08333333333331,460,170,460C162.91666666666666,460,162.91666666666666,460,155.83333333333331,460C148.75,460,148.75,460,141.66666666666669,460C134.58333333333334,460,134.58333333333334,441.75,127.5,441.75C120.41666666666666,441.75,120.41666666666666,432.55,113.33333333333333,432.55C106.25,432.55,106.25,398.2,99.16666666666667,398.2C85,398.2,85,460,70.83333333333334,460C63.75,460,63.75,460,56.666666666666664,460C49.58333333333333,460,49.58333333333333,460,42.5,460C35.416666666666664,460,35.416666666666664,460,28.333333333333332,460C21.25,460,21.25,436,14.166666666666666,436C7.083333333333333,436,7.083333333333333,460,0,460Z"><title> Pie </title></path><path fill="rgb(158, 1, 66)" d="M0,410.84999999999997C7.083333333333333,410.84999999999997,7.083333333333333,332.65000000000003,14.166666666666666,332.65000000000003C21.25,332.65000000000003,21.25,380.79999999999995,28.333333333333332,380.79999999999995C35.416666666666664,380.79999999999995,35.416666666666664,214.05,42.5,214.05C49.58333333333333,214.05,49.58333333333333,408.40000000000003,56.666666666666664,408.40000000000003C63.75,408.40000000000003,63.75,353.34999999999997,70.83333333333334,353.34999999999997C85,353.34999999999997,85,399.2,99.16666666666667,399.2C106.25,399.2,106.25,237.20000000000002,113.33333333333333,237.20000000000002C120.41666666666666,237.20000000000002,120.41666666666666,442.75,127.5,442.75C134.58333333333334,442.75,134.58333333333334,295.7,141.66666666666669,295.7C148.75,295.7,148.75,329.05,155.83333333333331,329.05C162.91666666666666,329.05,162.91666666666666,392.15000000000003,170,392.15000000000003C177.08333333333331,392.15000000000003,177.08333333333331,442.75,184.16666666666666,442.75C191.25,442.75,191.25,343,198.33333333333334,343C205.41666666666669,343,205.41666666666669,431.25,212.5,431.25C219.58333333333331,431.25,219.58333333333331,288.8,226.66666666666666,288.8C233.75,288.8,233.75,386.55,240.83333333333334,386.55C247.91666666666669,386.55,247.91666666666669,361.25,255,361.25C262.0833333333333,361.25,262.0833333333333,423.20000000000005,269.16666666666663,423.20000000000005C276.25,423.20000000000005,276.25,406.1,283.33333333333337,406.1C290.4166666666667,406.1,290.4166666666667,424.34999999999997,297.5,424.34999999999997C311.6666666666667,424.34999999999997,311.6666666666667,460,325.83333333333337,460C332.9166666666667,460,332.9166666666667,375.05,340,375.05C347.08333333333337,375.05,347.08333333333337,393.45000000000005,354.1666666666667,393.45000000000005C368.33333333333337,393.45000000000005,368.33333333333337,402.65,382.5,402.65C396.66666666666663,402.65,396.66666666666663,447.35,410.8333333333333,447.35C417.91666666666663,447.35,417.91666666666663,418.6,425,418.6C432.08333333333337,418.6,432.08333333333337,410.54999999999995,439.1666666666667,410.54999999999995C446.25,410.54999999999995,446.25,438.29999999999995,453.3333333333333,438.29999999999995C460.41666666666663,438.29999999999995,460.41666666666663,354.34999999999997,467.5,354.34999999999997C474.58333333333337,354.34999999999997,474.58333333333337,422.05,481.6666666666667,422.05C488.75,422.05,488.75,441.9,495.8333333333333,441.9C502.91666666666663,441.9,502.91666666666663,429.1,510,429.1C524.1666666666666,429.1,524.1666666666666,460,538.3333333333333,460C545.4166666666666,460,545.4166666666666,202.55,552.5,202.55C559.5833333333334,202.55,559.5833333333334,-2,566.6666666666667,-2C587.9166666666667,-2,587.9166666666667,460,609.1666666666667,460C616.25,460,616.25,443.9,623.3333333333333,443.9C630.4166666666666,443.9,630.4166666666666,175.1,637.5,175.1C644.5833333333334,175.1,644.5833333333334,329.05,651.6666666666667,329.05C658.75,329.05,658.75,327.90000000000003,665.8333333333333,327.90000000000003C672.9166666666666,327.90000000000003,672.9166666666666,460,680,460L680,460C672.9166666666666,460,672.9166666666666,459,665.8333333333333,459C658.75,459,658.75,437.15000000000003,651.6666666666667,437.15000000000003C644.5833333333334,437.15000000000003,644.5833333333334,444.2,637.5,444.2C630.4166666666666,444.2,630.4166666666666,460,623.3333333333333,460C616.25,460,616.25,460,609.1666666666667,460C587.9166666666667,460,587.9166666666667,420.05,566.6666666666667,420.05C559.5833333333334,420.05,559.5833333333334,413,552.5,413C545.4166666666666,413,545.4166666666666,460,538.3333333333333,460C524.1666666666666,460,524.1666666666666,459,510,459C502.91666666666663,459,502.91666666666663,458,495.8333333333333,458C488.75,458,488.75,460,481.6666666666667,460C474.58333333333337,460,474.58333333333337,407.25,467.5,407.25C460.41666666666663,407.25,460.41666666666663,459,453.3333333333333,459C446.25,459,446.25,460,439.1666666666667,460C432.08333333333337,460,432.08333333333337,460,425,460C417.91666666666663,460,417.91666666666663,460,410.8333333333333,460C396.66666666666663,460,396.66666666666663,459,382.5,459C368.33333333333337,459,368.33333333333337,459,354.1666666666667,459C347.08333333333337,459,347.08333333333337,438.29999999999995,340,438.29999999999995C332.9166666666667,438.29999999999995,332.9166666666667,460,325.83333333333337,460C311.6666666666667,460,311.6666666666667,460,297.5,460C290.4166666666667,460,290.4166666666667,459,283.33333333333337,459C276.25,459,276.25,460,269.16666666666663,460C262.0833333333333,460,262.0833333333333,430.25,255,430.25C247.91666666666669,430.25,247.91666666666669,431.4,240.83333333333334,431.4C233.75,431.4,233.75,442.9,226.66666666666666,442.9C219.58333333333331,442.9,219.58333333333331,460,212.5,460C205.41666666666669,460,205.41666666666669,458,198.33333333333334,458C191.25,458,191.25,460,184.16666666666666,460C177.08333333333331,460,177.08333333333331,460,170,460C162.91666666666666,460,162.91666666666666,446.35,155.83333333333331,446.35C148.75,446.35,148.75,459,141.66666666666669,459C134.58333333333334,459,134.58333333333334,460,127.5,460C120.41666666666666,460,120.41666666666666,359.1,113.33333333333333,359.1C106.25,359.1,106.25,446.35,99.16666666666667,446.35C85,446.35,85,458,70.83333333333334,458C63.75,458,63.75,438.29999999999995,56.666666666666664,438.29999999999995C49.58333333333333,438.29999999999995,49.58333333333333,440.59999999999997,42.5,440.59999999999997C35.416666666666664,440.59999999999997,35.416666666666664,459,28.333333333333332,459C21.25,459,21.25,387.85,14.166666666666666,387.85C7.083333333333333,387.85,7.083333333333333,458,0,458Z"><title> Auto </title></path><path fill="rgb(94, 79, 162)" d="M0,459C7.083333333333333,459,7.083333333333333,437,14.166666666666666,437C21.25,437,21.25,459,28.333333333333332,459C35.416666666666664,459,35.416666666666664,460,42.5,460C49.58333333333333,460,49.58333333333333,460,56.666666666666664,460C63.75,460,63.75,459,70.83333333333334,459C85,459,85,460,99.16666666666667,460C106.25,460,106.25,460,113.33333333333333,460C120.41666666666666,460,120.41666666666666,460,127.5,460C134.58333333333334,460,134.58333333333334,459,141.66666666666669,459C148.75,459,148.75,460,155.83333333333331,460C162.91666666666666,460,162.91666666666666,460,170,460C177.08333333333331,460,177.08333333333331,460,184.16666666666666,460C191.25,460,191.25,459,198.33333333333334,459C205.41666666666669,459,205.41666666666669,383.09999999999997,212.5,383.09999999999997C219.58333333333331,383.09999999999997,219.58333333333331,460,226.66666666666666,460C233.75,460,233.75,460,240.83333333333334,460C247.91666666666669,460,247.91666666666669,460,255,460C262.0833333333333,460,262.0833333333333,460,269.16666666666663,460C276.25,460,276.25,459,283.33333333333337,459C290.4166666666667,459,290.4166666666667,460,297.5,460C311.6666666666667,460,311.6666666666667,459,325.83333333333337,459C332.9166666666667,459,332.9166666666667,460,340,460C347.08333333333337,460,347.08333333333337,459,354.1666666666667,459C368.33333333333337,459,368.33333333333337,460,382.5,460C396.66666666666663,460,396.66666666666663,395.75,410.8333333333333,395.75C417.91666666666663,395.75,417.91666666666663,460,425,460C432.08333333333337,460,432.08333333333337,460,439.1666666666667,460C446.25,460,446.25,459,453.3333333333333,459C460.41666666666663,459,460.41666666666663,460,467.5,460C474.58333333333337,460,474.58333333333337,460,481.6666666666667,460C488.75,460,488.75,459,495.8333333333333,459C502.91666666666663,459,502.91666666666663,380.95,510,380.95C524.1666666666666,380.95,524.1666666666666,459,538.3333333333333,459C545.4166666666666,459,545.4166666666666,460,552.5,460C559.5833333333334,460,559.5833333333334,460,566.6666666666667,460C587.9166666666667,460,587.9166666666667,401.5,609.1666666666667,401.5C616.25,401.5,616.25,460,623.3333333333333,460C630.4166666666666,460,630.4166666666666,460,637.5,460C644.5833333333334,460,644.5833333333334,460,651.6666666666667,460C658.75,460,658.75,459,665.8333333333333,459C672.9166666666666,459,672.9166666666666,460,680,460L680,460C672.9166666666666,460,672.9166666666666,459,665.8333333333333,459C658.75,459,658.75,460,651.6666666666667,460C644.5833333333334,460,644.5833333333334,460,637.5,460C630.4166666666666,460,630.4166666666666,460,623.3333333333333,460C616.25,460,616.25,459,609.1666666666667,459C587.9166666666667,459,587.9166666666667,460,566.6666666666667,460C559.5833333333334,460,559.5833333333334,460,552.5,460C545.4166666666666,460,545.4166666666666,459,538.3333333333333,459C524.1666666666666,459,524.1666666666666,428.1,510,428.1C502.91666666666663,428.1,502.91666666666663,459,495.8333333333333,459C488.75,459,488.75,460,481.6666666666667,460C474.58333333333337,460,474.58333333333337,460,467.5,460C460.41666666666663,460,460.41666666666663,459,453.3333333333333,459C446.25,459,446.25,460,439.1666666666667,460C432.08333333333337,460,432.08333333333337,460,425,460C417.91666666666663,460,417.91666666666663,446.35,410.8333333333333,446.35C396.66666666666663,446.35,396.66666666666663,460,382.5,460C368.33333333333337,460,368.33333333333337,459,354.1666666666667,459C347.08333333333337,459,347.08333333333337,460,340,460C332.9166666666667,460,332.9166666666667,459,325.83333333333337,459C311.6666666666667,459,311.6666666666667,460,297.5,460C290.4166666666667,460,290.4166666666667,459,283.33333333333337,459C276.25,459,276.25,460,269.16666666666663,460C262.0833333333333,460,262.0833333333333,460,255,460C247.91666666666669,460,247.91666666666669,460,240.83333333333334,460C233.75,460,233.75,460,226.66666666666666,460C219.58333333333331,460,219.58333333333331,430.25,212.5,430.25C205.41666666666669,430.25,205.41666666666669,459,198.33333333333334,459C191.25,459,191.25,460,184.16666666666666,460C177.08333333333331,460,177.08333333333331,460,170,460C162.91666666666666,460,162.91666666666666,460,155.83333333333331,460C148.75,460,148.75,459,141.66666666666669,459C134.58333333333334,459,134.58333333333334,460,127.5,460C120.41666666666666,460,120.41666666666666,460,113.33333333333333,460C106.25,460,106.25,460,99.16666666666667,460C85,460,85,459,70.83333333333334,459C63.75,459,63.75,460,56.666666666666664,460C49.58333333333333,460,49.58333333333333,460,42.5,460C35.416666666666664,460,35.416666666666664,459,28.333333333333332,459C21.25,459,21.25,460,14.166666666666666,460C7.083333333333333,460,7.083333333333333,459,0,459Z"><title> Subte </title></path><path fill="rgb(253, 190, 112)" d="M0,458C7.083333333333333,458,7.083333333333333,460,14.166666666666666,460C21.25,460,21.25,459,28.333333333333332,459C35.416666666666664,459,35.416666666666664,460,42.5,460C49.58333333333333,460,49.58333333333333,460,56.666666666666664,460C63.75,460,63.75,459,70.83333333333334,459C85,459,85,447.35,99.16666666666667,447.35C106.25,447.35,106.25,433.55,113.33333333333333,433.55C120.41666666666666,433.55,120.41666666666666,460,127.5,460C134.58333333333334,460,134.58333333333334,459,141.66666666666669,459C148.75,459,148.75,460,155.83333333333331,460C162.91666666666666,460,162.91666666666666,460,170,460C177.08333333333331,460,177.08333333333331,460,184.16666666666666,460C191.25,460,191.25,458,198.33333333333334,458C205.41666666666669,458,205.41666666666669,460,212.5,460C219.58333333333331,460,219.58333333333331,460,226.66666666666666,460C233.75,460,233.75,460,240.83333333333334,460C247.91666666666669,460,247.91666666666669,460,255,460C262.0833333333333,460,262.0833333333333,460,269.16666666666663,460C276.25,460,276.25,459,283.33333333333337,459C290.4166666666667,459,290.4166666666667,460,297.5,460C311.6666666666667,460,311.6666666666667,459,325.83333333333337,459C332.9166666666667,459,332.9166666666667,460,340,460C347.08333333333337,460,347.08333333333337,459,354.1666666666667,459C368.33333333333337,459,368.33333333333337,459,382.5,459C396.66666666666663,459,396.66666666666663,460,410.8333333333333,460C417.91666666666663,460,417.91666666666663,460,425,460C432.08333333333337,460,432.08333333333337,460,439.1666666666667,460C446.25,460,446.25,459,453.3333333333333,459C460.41666666666663,459,460.41666666666663,460,467.5,460C474.58333333333337,460,474.58333333333337,460,481.6666666666667,460C488.75,460,488.75,458,495.8333333333333,458C502.91666666666663,458,502.91666666666663,460,510,460C524.1666666666666,460,524.1666666666666,430.25,538.3333333333333,430.25C545.4166666666666,430.25,545.4166666666666,460,552.5,460C559.5833333333334,460,559.5833333333334,459,566.6666666666667,459C587.9166666666667,459,587.9166666666667,459,609.1666666666667,459C616.25,459,616.25,460,623.3333333333333,460C630.4166666666666,460,630.4166666666666,460,637.5,460C644.5833333333334,460,644.5833333333334,438.15000000000003,651.6666666666667,438.15000000000003C658.75,438.15000000000003,658.75,459,665.8333333333333,459C672.9166666666666,459,672.9166666666666,460,680,460L680,460C672.9166666666666,460,672.9166666666666,459,665.8333333333333,459C658.75,459,658.75,460,651.6666666666667,460C644.5833333333334,460,644.5833333333334,460,637.5,460C630.4166666666666,460,630.4166666666666,460,623.3333333333333,460C616.25,460,616.25,459,609.1666666666667,459C587.9166666666667,459,587.9166666666667,459,566.6666666666667,459C559.5833333333334,459,559.5833333333334,460,552.5,460C545.4166666666666,460,545.4166666666666,459,538.3333333333333,459C524.1666666666666,459,524.1666666666666,460,510,460C502.91666666666663,460,502.91666666666663,458,495.8333333333333,458C488.75,458,488.75,460,481.6666666666667,460C474.58333333333337,460,474.58333333333337,460,467.5,460C460.41666666666663,460,460.41666666666663,459,453.3333333333333,459C446.25,459,446.25,460,439.1666666666667,460C432.08333333333337,460,432.08333333333337,460,425,460C417.91666666666663,460,417.91666666666663,460,410.8333333333333,460C396.66666666666663,460,396.66666666666663,459,382.5,459C368.33333333333337,459,368.33333333333337,459,354.1666666666667,459C347.08333333333337,459,347.08333333333337,460,340,460C332.9166666666667,460,332.9166666666667,459,325.83333333333337,459C311.6666666666667,459,311.6666666666667,460,297.5,460C290.4166666666667,460,290.4166666666667,459,283.33333333333337,459C276.25,459,276.25,460,269.16666666666663,460C262.0833333333333,460,262.0833333333333,460,255,460C247.91666666666669,460,247.91666666666669,460,240.83333333333334,460C233.75,460,233.75,460,226.66666666666666,460C219.58333333333331,460,219.58333333333331,460,212.5,460C205.41666666666669,460,205.41666666666669,458,198.33333333333334,458C191.25,458,191.25,460,184.16666666666666,460C177.08333333333331,460,177.08333333333331,460,170,460C162.91666666666666,460,162.91666666666666,460,155.83333333333331,460C148.75,460,148.75,459,141.66666666666669,459C134.58333333333334,459,134.58333333333334,460,127.5,460C120.41666666666666,460,120.41666666666666,460,113.33333333333333,460C106.25,460,106.25,460,99.16666666666667,460C85,460,85,459,70.83333333333334,459C63.75,459,63.75,460,56.666666666666664,460C49.58333333333333,460,49.58333333333333,460,42.5,460C35.416666666666664,460,35.416666666666664,459,28.333333333333332,459C21.25,459,21.25,460,14.166666666666666,460C7.083333333333333,460,7.083333333333333,458,0,458Z"><title> Colectivo </title></path></g><g id="xAxis" transform="translate(0,460)" fill="none" font-size="10" font-family="sans-serif" text-anchor="middle"><path class="domain" stroke="currentColor" d="M0.5,0.5H680.5"/><g class="tick" opacity="1" transform="translate(71.33333333333334,0)"><line stroke="currentColor" y2="6"/><text fill="currentColor" y="9" dy="0.71em">Jul 06</text></g><g class="tick" opacity="1" transform="translate(170.5,0)"><line stroke="currentColor" y2="6"/><text fill="currentColor" y="9" dy="0.71em">Jul 13</text></g><g class="tick" opacity="1" transform="translate(269.66666666666663,0)"><line stroke="currentColor" y2="6"/><text fill="currentColor" y="9" dy="0.71em">Jul 20</text></g><g class="tick" opacity="1" transform="translate(368.8333333333333,0)"><line stroke="currentColor" y2="6"/><text fill="currentColor" y="9" dy="0.71em">Jul 27</text></g><g class="tick" opacity="1" transform="translate(468,0)"><line stroke="currentColor" y2="6"/><text fill="currentColor" y="9" dy="0.71em">Aug 03</text></g><g class="tick" opacity="1" transform="translate(567.1666666666667,0)"><line stroke="currentColor" y2="6"/><text fill="currentColor" y="9" dy="0.71em">Aug 10</text></g><g class="tick" opacity="1" transform="translate(666.3333333333333,0)"><line stroke="currentColor" y2="6"/><text fill="currentColor" y="9" dy="0.71em">Aug 17</text></g></g><text y="456" x="680" text-anchor="end" style="font-family: Arial, sans-serif; font-size: 12px; fill: rgb(123, 123, 123); font-weight: bold;">Fecha</text><text x="4" text-anchor="start" dominant-baseline="hanging" style="font-family: Arial, sans-serif; font-size: 12px; fill: rgb(123, 123, 123); font-weight: bold;">Tiempo_mins</text><g id="labels"><text x="269.16666666666663" y="348.6" text-anchor="middle" alignment-baseline="middle" style="font-family: Arial, sans-serif; font-size: 10px; fill: black; font-weight: bold;"> Pie </text><text x="566.6666666666667" y="209.025" text-anchor="middle" alignment-baseline="middle" style="font-family: Arial, sans-serif; font-size: 10px; fill: black; font-weight: bold;"> Auto </text><text x="609.1666666666667" y="430.25" text-anchor="middle" alignment-baseline="middle" style="font-family: Arial, sans-serif; font-size: 10px; fill: black; font-weight: bold;"> Subte </text><text x="538.3333333333333" y="444.625" text-anchor="middle" alignment-baseline="middle" style="font-family: Arial, sans-serif; font-size: 10px; fill: black; font-weight: bold;"> Colectivo </text></g></g><text x="4" y="4" style="font-family: Arial, sans-serif; font-size: 12px; fill: black; font-weight: bold; dominant-baseline: hanging;"/></g></g></svg>