<svg xmlns="http://www.w3.org/2000/svg" width="700" height="500"><rect width="700" height="500" x="0" y="0" fill="#FFFFFF" id="background"/><g id="viz"><g transform="translate(0,0)"><g transform="translate(10,20)"><g><path fill="rgb(190, 229, 160)" d="M0,460C7.083333333333333,460,7.083333333333333,448.5,14.166666666666666,448.5C21.25,448.5,21.25,460,28.333333333333332,460C35.416666666666664,460,35.416666666666664,454.25,42.5,454.25C49.58333333333333,454.25,49.58333333333333,454.25,56.666666666666664,454.25C63.75,454.25,63.75,460,70.83333333333334,460C85,460,85,448.5,99.16666666666667,448.5C106.25,448.5,106.25,442.75,113.33333333333333,442.75C120.41666666666666,442.75,120.41666666666666,437,127.5,437C134.58333333333334,437,134.58333333333334,460,141.66666666666669,460C148.75,460,148.75,454.25,155.83333333333331,454.25C162.91666666666666,454.25,162.91666666666666,460,170,460C177.08333333333331,460,177.08333333333331,460,184.16666666666666,460C191.25,460,191.25,460,198.33333333333334,460C205.41666666666669,460,205.41666666666669,437,212.5,437C219.58333333333331,437,219.58333333333331,454.25,226.66666666666666,454.25C233.75,454.25,233.75,448.5,240.83333333333334,448.5C247.91666666666669,448.5,247.91666666666669,448.5,255,448.5C262.0833333333333,448.5,262.0833333333333,414,269.16666666666663,414C276.25,414,276.25,460,283.33333333333337,460C290.4166666666667,460,290.4166666666667,442.75,297.5,442.75C311.6666666666667,442.75,311.6666666666667,453.25,325.83333333333337,453.25C332.9166666666667,453.25,332.9166666666667,454.25,340,454.25C347.08333333333337,454.25,347.08333333333337,460,354.1666666666667,460C368.33333333333337,460,368.33333333333337,436,382.5,436C396.66666666666663,436,396.66666666666663,442.75,410.8333333333333,442.75C417.91666666666663,442.75,417.91666666666663,460,425,460C432.08333333333337,460,432.08333333333337,460,439.1666666666667,460C446.25,460,446.25,460,453.3333333333333,460C460.41666666666663,460,460.41666666666663,442.75,467.5,442.75C474.58333333333337,442.75,474.58333333333337,460,481.6666666666667,460C488.75,460,488.75,460,495.8333333333333,460C502.91666666666663,460,502.91666666666663,424.5,510,424.5C524.1666666666666,424.5,524.1666666666666,453.25,538.3333333333333,453.25C545.4166666666666,453.25,545.4166666666666,448.5,552.5,448.5C559.5833333333334,448.5,559.5833333333334,447.5,566.6666666666667,447.5C587.9166666666667,447.5,587.9166666666667,436,609.1666666666667,436C616.25,436,616.25,448.5,623.3333333333333,448.5C630.4166666666666,448.5,630.4166666666666,457.4475,637.5,457.4475C644.5833333333334,457.4475,644.5833333333334,460,651.6666666666667,460C658.75,460,658.75,460,665.8333333333333,460C672.9166666666666,460,672.9166666666666,442.75,680,442.75L680,460C672.9166666666666,460,672.9166666666666,460,665.8333333333333,460C658.75,460,658.75,460,651.6666666666667,460C644.5833333333334,460,644.5833333333334,459,637.5,459C630.4166666666666,459,630.4166666666666,460,623.3333333333333,460C616.25,460,616.25,459,609.1666666666667,459C587.9166666666667,459,587.9166666666667,459,566.6666666666667,459C559.5833333333334,459,559.5833333333334,460,552.5,460C545.4166666666666,460,545.4166666666666,459,538.3333333333333,459C524.1666666666666,459,524.1666666666666,459,510,459C502.91666666666663,459,502.91666666666663,460,495.8333333333333,460C488.75,460,488.75,460,481.6666666666667,460C474.58333333333337,460,474.58333333333337,460,467.5,460C460.41666666666663,460,460.41666666666663,460,453.3333333333333,460C446.25,460,446.25,460,439.1666666666667,460C432.08333333333337,460,432.08333333333337,460,425,460C417.91666666666663,460,417.91666666666663,460,410.8333333333333,460C396.66666666666663,460,396.66666666666663,459,382.5,459C368.33333333333337,459,368.33333333333337,460,354.1666666666667,460C347.08333333333337,460,347.08333333333337,460,340,460C332.9166666666667,460,332.9166666666667,459,325.83333333333337,459C311.6666666666667,459,311.6666666666667,460,297.5,460C290.4166666666667,460,290.4166666666667,460,283.33333333333337,460C276.25,460,276.25,460,269.16666666666663,460C262.0833333333333,460,262.0833333333333,460,255,460C247.91666666666669,460,247.91666666666669,460,240.83333333333334,460C233.75,460,233.75,460,226.66666666666666,460C219.58333333333331,460,219.58333333333331,460,212.5,460C205.41666666666669,460,205.41666666666669,460,198.33333333333334,460C191.25,460,191.25,460,184.16666666666666,460C177.08333333333331,460,177.08333333333331,460,170,460C162.91666666666666,460,162.91666666666666,460,155.83333333333331,460C148.75,460,148.75,460,141.66666666666669,460C134.58333333333334,460,134.58333333333334,460,127.5,460C120.41666666666666,460,120.41666666666666,460,113.33333333333333,460C106.25,460,106.25,460,99.16666666666667,460C85,460,85,460,70.83333333333334,460C63.75,460,63.75,460,56.666666666666664,460C49.58333333333333,460,49.58333333333333,460,42.5,460C35.416666666666664,460,35.416666666666664,460,28.333333333333332,460C21.25,460,21.25,460,14.166666666666666,460C7.083333333333333,460,7.083333333333333,460,0,460Z"><title> Pie </title></path><path fill="rgb(158, 1, 66)" d="M0,371.75C7.083333333333333,371.75,7.083333333333333,325.75,14.166666666666666,325.75C21.25,325.75,21.25,344,28.333333333333332,344C35.416666666666664,344,35.416666666666664,326.75,42.5,326.75C49.58333333333333,326.75,49.58333333333333,401.5,56.666666666666664,401.5C63.75,401.5,63.75,325.75,70.83333333333334,325.75C85,325.75,85,366,99.16666666666667,366C106.25,366,106.25,268.25,113.33333333333333,268.25C120.41666666666666,268.25,120.41666666666666,413,127.5,413C134.58333333333334,413,134.58333333333334,263.5,141.66666666666669,263.5C148.75,263.5,148.75,252.00000000000003,155.83333333333331,252.00000000000003C162.91666666666666,252.00000000000003,162.91666666666666,408.25,170,408.25C177.08333333333331,408.25,177.08333333333331,425.5,184.16666666666666,425.5C191.25,425.5,191.25,308.5,198.33333333333334,308.5C205.41666666666669,308.5,205.41666666666669,378.5,212.5,378.5C219.58333333333331,378.5,219.58333333333331,361.25,226.66666666666666,361.25C233.75,361.25,233.75,401.5,240.83333333333334,401.5C247.91666666666669,401.5,247.91666666666669,344,255,344C262.0833333333333,344,262.0833333333333,349.75,269.16666666666663,349.75C276.25,349.75,276.25,355.5,283.33333333333337,355.5C290.4166666666667,355.5,290.4166666666667,395.75,297.5,395.75C311.6666666666667,395.75,311.6666666666667,460,325.83333333333337,460C332.9166666666667,460,332.9166666666667,361.25,340,361.25C347.08333333333337,361.25,347.08333333333337,332.5,354.1666666666667,332.5C368.33333333333337,332.5,368.33333333333337,343,382.5,343C396.66666666666663,343,396.66666666666663,413,410.8333333333333,413C417.91666666666663,413,417.91666666666663,379.5,425,379.5C432.08333333333337,379.5,432.08333333333337,333.5,439.1666666666667,333.5C446.25,333.5,446.25,424.5,453.3333333333333,424.5C460.41666666666663,424.5,460.41666666666663,344,467.5,344C474.58333333333337,344,474.58333333333337,385.25,481.6666666666667,385.25C488.75,385.25,488.75,423.5,495.8333333333333,423.5C502.91666666666663,423.5,502.91666666666663,371.75,510,371.75C524.1666666666666,371.75,524.1666666666666,460,538.3333333333333,460C545.4166666666666,460,545.4166666666666,298,552.5,298C559.5833333333334,298,559.5833333333334,124.50000000000001,566.6666666666667,124.50000000000001C587.9166666666667,124.50000000000001,587.9166666666667,460,609.1666666666667,460C616.25,460,616.25,424.5,623.3333333333333,424.5C630.4166666666666,424.5,630.4166666666666,19.447500000000012,637.5,19.447500000000012C644.5833333333334,19.447500000000012,644.5833333333334,269.25,651.6666666666667,269.25C658.75,269.25,658.75,85.25,665.8333333333333,85.25C672.9166666666666,85.25,672.9166666666666,460,680,460L680,460C672.9166666666666,460,672.9166666666666,459,665.8333333333333,459C658.75,459,658.75,436,651.6666666666667,436C644.5833333333334,436,644.5833333333334,456.4475,637.5,456.4475C630.4166666666666,456.4475,630.4166666666666,447.5,623.3333333333333,447.5C616.25,447.5,616.25,460,609.1666666666667,460C587.9166666666667,460,587.9166666666667,446.5,566.6666666666667,446.5C559.5833333333334,446.5,559.5833333333334,447.5,552.5,447.5C545.4166666666666,447.5,545.4166666666666,460,538.3333333333333,460C524.1666666666666,460,524.1666666666666,423.5,510,423.5C502.91666666666663,423.5,502.91666666666663,458,495.8333333333333,458C488.75,458,488.75,460,481.6666666666667,460C474.58333333333337,460,474.58333333333337,441.75,467.5,441.75C460.41666666666663,441.75,460.41666666666663,459,453.3333333333333,459C446.25,459,446.25,460,439.1666666666667,460C432.08333333333337,460,432.08333333333337,460,425,460C417.91666666666663,460,417.91666666666663,441.75,410.8333333333333,441.75C396.66666666666663,441.75,396.66666666666663,435,382.5,435C368.33333333333337,435,368.33333333333337,459,354.1666666666667,459C347.08333333333337,459,347.08333333333337,453.25,340,453.25C332.9166666666667,453.25,332.9166666666667,460,325.83333333333337,460C311.6666666666667,460,311.6666666666667,441.75,297.5,441.75C290.4166666666667,441.75,290.4166666666667,459,283.33333333333337,459C276.25,459,276.25,413,269.16666666666663,413C262.0833333333333,413,262.0833333333333,447.5,255,447.5C247.91666666666669,447.5,247.91666666666669,447.5,240.83333333333334,447.5C233.75,447.5,233.75,453.25,226.66666666666666,453.25C219.58333333333331,453.25,219.58333333333331,436,212.5,436C205.41666666666669,436,205.41666666666669,458,198.33333333333334,458C191.25,458,191.25,460,184.16666666666666,460C177.08333333333331,460,177.08333333333331,460,170,460C162.91666666666666,460,162.91666666666666,453.25,155.83333333333331,453.25C148.75,453.25,148.75,459,141.66666666666669,459C134.58333333333334,459,134.58333333333334,436,127.5,436C120.41666666666666,436,120.41666666666666,406.25,113.33333333333333,406.25C106.25,406.25,106.25,417.75,99.16666666666667,417.75C85,417.75,85,458,70.83333333333334,458C63.75,458,63.75,453.25,56.666666666666664,453.25C49.58333333333333,453.25,49.58333333333333,453.25,42.5,453.25C35.416666666666664,453.25,35.416666666666664,459,28.333333333333332,459C21.25,459,21.25,400.5,14.166666666666666,400.5C7.083333333333333,400.5,7.083333333333333,458,0,458Z"><title> Auto </title></path><path fill="rgb(94, 79, 162)" d="M0,459C7.083333333333333,459,7.083333333333333,401.5,14.166666666666666,401.5C21.25,401.5,21.25,459,28.333333333333332,459C35.416666666666664,459,35.416666666666664,460,42.5,460C49.58333333333333,460,49.58333333333333,460,56.666666666666664,460C63.75,460,63.75,459,70.83333333333334,459C85,459,85,460,99.16666666666667,460C106.25,460,106.25,460,113.33333333333333,460C120.41666666666666,460,120.41666666666666,460,127.5,460C134.58333333333334,460,134.58333333333334,459,141.66666666666669,459C148.75,459,148.75,460,155.83333333333331,460C162.91666666666666,460,162.91666666666666,460,170,460C177.08333333333331,460,177.08333333333331,460,184.16666666666666,460C191.25,460,191.25,459,198.33333333333334,459C205.41666666666669,459,205.41666666666669,302.75,212.5,302.75C219.58333333333331,302.75,219.58333333333331,460,226.66666666666666,460C233.75,460,233.75,460,240.83333333333334,460C247.91666666666669,460,247.91666666666669,460,255,460C262.0833333333333,460,262.0833333333333,460,269.16666666666663,460C276.25,460,276.25,459,283.33333333333337,459C290.4166666666667,459,290.4166666666667,460,297.5,460C311.6666666666667,460,311.6666666666667,459,325.83333333333337,459C332.9166666666667,459,332.9166666666667,460,340,460C347.08333333333337,460,347.08333333333337,459,354.1666666666667,459C368.33333333333337,459,368.33333333333337,460,382.5,460C396.66666666666663,460,396.66666666666663,331.5,410.8333333333333,331.5C417.91666666666663,331.5,417.91666666666663,460,425,460C432.08333333333337,460,432.08333333333337,460,439.1666666666667,460C446.25,460,446.25,459,453.3333333333333,459C460.41666666666663,459,460.41666666666663,460,467.5,460C474.58333333333337,460,474.58333333333337,460,481.6666666666667,460C488.75,460,488.75,459,495.8333333333333,459C502.91666666666663,459,502.91666666666663,290.25,510,290.25C524.1666666666666,290.25,524.1666666666666,459,538.3333333333333,459C545.4166666666666,459,545.4166666666666,460,552.5,460C559.5833333333334,460,559.5833333333334,460,566.6666666666667,460C587.9166666666667,460,587.9166666666667,331.5,609.1666666666667,331.5C616.25,331.5,616.25,460,623.3333333333333,460C630.4166666666666,460,630.4166666666666,460,637.5,460C644.5833333333334,460,644.5833333333334,460,651.6666666666667,460C658.75,460,658.75,459,665.8333333333333,459C672.9166666666666,459,672.9166666666666,460,680,460L680,460C672.9166666666666,460,672.9166666666666,459,665.8333333333333,459C658.75,459,658.75,460,651.6666666666667,460C644.5833333333334,460,644.5833333333334,460,637.5,460C630.4166666666666,460,630.4166666666666,460,623.3333333333333,460C616.25,460,616.25,435,609.1666666666667,435C587.9166666666667,435,587.9166666666667,460,566.6666666666667,460C559.5833333333334,460,559.5833333333334,460,552.5,460C545.4166666666666,460,545.4166666666666,459,538.3333333333333,459C524.1666666666666,459,524.1666666666666,370.75,510,370.75C502.91666666666663,370.75,502.91666666666663,459,495.8333333333333,459C488.75,459,488.75,460,481.6666666666667,460C474.58333333333337,460,474.58333333333337,460,467.5,460C460.41666666666663,460,460.41666666666663,459,453.3333333333333,459C446.25,459,446.25,460,439.1666666666667,460C432.08333333333337,460,432.08333333333337,460,425,460C417.91666666666663,460,417.91666666666663,412,410.8333333333333,412C396.66666666666663,412,396.66666666666663,460,382.5,460C368.33333333333337,460,368.33333333333337,459,354.1666666666667,459C347.08333333333337,459,347.08333333333337,460,340,460C332.9166666666667,460,332.9166666666667,459,325.83333333333337,459C311.6666666666667,459,311.6666666666667,460,297.5,460C290.4166666666667,460,290.4166666666667,459,283.33333333333337,459C276.25,459,276.25,460,269.16666666666663,460C262.0833333333333,460,262.0833333333333,460,255,460C247.91666666666669,460,247.91666666666669,460,240.83333333333334,460C233.75,460,233.75,460,226.66666666666666,460C219.58333333333331,460,219.58333333333331,377.5,212.5,377.5C205.41666666666669,377.5,205.41666666666669,459,198.33333333333334,459C191.25,459,191.25,460,184.16666666666666,460C177.08333333333331,460,177.08333333333331,460,170,460C162.91666666666666,460,162.91666666666666,460,155.83333333333331,460C148.75,460,148.75,459,141.66666666666669,459C134.58333333333334,459,134.58333333333334,460,127.5,460C120.41666666666666,460,120.41666666666666,460,113.33333333333333,460C106.25,460,106.25,460,99.16666666666667,460C85,460,85,459,70.83333333333334,459C63.75,459,63.75,460,56.666666666666664,460C49.58333333333333,460,49.58333333333333,460,42.5,460C35.416666666666664,460,35.416666666666664,459,28.333333333333332,459C21.25,459,21.25,447.5,14.166666666666666,447.5C7.083333333333333,447.5,7.083333333333333,459,0,459Z"><title> Subte </title></path><path fill="rgb(253, 190, 112)" d="M0,458C7.083333333333333,458,7.083333333333333,460,14.166666666666666,460C21.25,460,21.25,459,28.333333333333332,459C35.416666666666664,459,35.416666666666664,460,42.5,460C49.58333333333333,460,49.58333333333333,460,56.666666666666664,460C63.75,460,63.75,459,70.83333333333334,459C85,459,85,418.75,99.16666666666667,418.75C106.25,418.75,106.25,407.25,113.33333333333333,407.25C120.41666666666666,407.25,120.41666666666666,460,127.5,460C134.58333333333334,460,134.58333333333334,459,141.66666666666669,459C148.75,459,148.75,460,155.83333333333331,460C162.91666666666666,460,162.91666666666666,460,170,460C177.08333333333331,460,177.08333333333331,460,184.16666666666666,460C191.25,460,191.25,458,198.33333333333334,458C205.41666666666669,458,205.41666666666669,460,212.5,460C219.58333333333331,460,219.58333333333331,460,226.66666666666666,460C233.75,460,233.75,460,240.83333333333334,460C247.91666666666669,460,247.91666666666669,460,255,460C262.0833333333333,460,262.0833333333333,460,269.16666666666663,460C276.25,460,276.25,459,283.33333333333337,459C290.4166666666667,459,290.4166666666667,460,297.5,460C311.6666666666667,460,311.6666666666667,459,325.83333333333337,459C332.9166666666667,459,332.9166666666667,460,340,460C347.08333333333337,460,347.08333333333337,459,354.1666666666667,459C368.33333333333337,459,368.33333333333337,459,382.5,459C396.66666666666663,459,396.66666666666663,460,410.8333333333333,460C417.91666666666663,460,417.91666666666663,460,425,460C432.08333333333337,460,432.08333333333337,460,439.1666666666667,460C446.25,460,446.25,459,453.3333333333333,459C460.41666666666663,459,460.41666666666663,460,467.5,460C474.58333333333337,460,474.58333333333337,460,481.6666666666667,460C488.75,460,488.75,458,495.8333333333333,458C502.91666666666663,458,502.91666666666663,460,510,460C524.1666666666666,460,524.1666666666666,423.5,538.3333333333333,423.5C545.4166666666666,423.5,545.4166666666666,460,552.5,460C559.5833333333334,460,559.5833333333334,459,566.6666666666667,459C587.9166666666667,459,587.9166666666667,459,609.1666666666667,459C616.25,459,616.25,460,623.3333333333333,460C630.4166666666666,460,630.4166666666666,460,637.5,460C644.5833333333334,460,644.5833333333334,437,651.6666666666667,437C658.75,437,658.75,459,665.8333333333333,459C672.9166666666666,459,672.9166666666666,460,680,460L680,460C672.9166666666666,460,672.9166666666666,459,665.8333333333333,459C658.75,459,658.75,460,651.6666666666667,460C644.5833333333334,460,644.5833333333334,460,637.5,460C630.4166666666666,460,630.4166666666666,460,623.3333333333333,460C616.25,460,616.25,459,609.1666666666667,459C587.9166666666667,459,587.9166666666667,459,566.6666666666667,459C559.5833333333334,459,559.5833333333334,460,552.5,460C545.4166666666666,460,545.4166666666666,452.25,538.3333333333333,452.25C524.1666666666666,452.25,524.1666666666666,460,510,460C502.91666666666663,460,502.91666666666663,458,495.8333333333333,458C488.75,458,488.75,460,481.6666666666667,460C474.58333333333337,460,474.58333333333337,460,467.5,460C460.41666666666663,460,460.41666666666663,459,453.3333333333333,459C446.25,459,446.25,460,439.1666666666667,460C432.08333333333337,460,432.08333333333337,460,425,460C417.91666666666663,460,417.91666666666663,460,410.8333333333333,460C396.66666666666663,460,396.66666666666663,459,382.5,459C368.33333333333337,459,368.33333333333337,459,354.1666666666667,459C347.08333333333337,459,347.08333333333337,460,340,460C332.9166666666667,460,332.9166666666667,459,325.83333333333337,459C311.6666666666667,459,311.6666666666667,460,297.5,460C290.4166666666667,460,290.4166666666667,459,283.33333333333337,459C276.25,459,276.25,460,269.16666666666663,460C262.0833333333333,460,262.0833333333333,460,255,460C247.91666666666669,460,247.91666666666669,460,240.83333333333334,460C233.75,460,233.75,460,226.66666666666666,460C219.58333333333331,460,219.58333333333331,460,212.5,460C205.41666666666669,460,205.41666666666669,458,198.33333333333334,458C191.25,458,191.25,460,184.16666666666666,460C177.08333333333331,460,177.08333333333331,460,170,460C162.91666666666666,460,162.91666666666666,460,155.83333333333331,460C148.75,460,148.75,459,141.66666666666669,459C134.58333333333334,459,134.58333333333334,460,127.5,460C120.41666666666666,460,120.41666666666666,441.75,113.33333333333333,441.75C106.25,441.75,106.25,447.5,99.16666666666667,447.5C85,447.5,85,459,70.83333333333334,459C63.75,459,63.75,460,56.666666666666664,460C49.58333333333333,460,49.58333333333333,460,42.5,460C35.416666666666664,460,35.416666666666664,459,28.333333333333332,459C21.25,459,21.25,460,14.166666666666666,460C7.083333333333333,460,7.083333333333333,458,0,458Z"><title> Colectivo </title></path></g><g id="xAxis" transform="translate(0,460)" fill="none" font-size="10" font-family="sans-serif" text-anchor="middle"><path class="domain" stroke="currentColor" d="M0.5,0.5H680.5"/><g class="tick" opacity="1" transform="translate(71.33333333333334,0)"><line stroke="currentColor" y2="6"/><text fill="currentColor" y="9" dy="0.71em">Jul 06</text></g><g class="tick" opacity="1" transform="translate(170.5,0)"><line stroke="currentColor" y2="6"/><text fill="currentColor" y="9" dy="0.71em">Jul 13</text></g><g class="tick" opacity="1" transform="translate(269.66666666666663,0)"><line stroke="currentColor" y2="6"/><text fill="currentColor" y="9" dy="0.71em">Jul 20</text></g><g class="tick" opacity="1" transform="translate(368.8333333333333,0)"><line stroke="currentColor" y2="6"/><text fill="currentColor" y="9" dy="0.71em">Jul 27</text></g><g class="tick" opacity="1" transform="translate(468,0)"><line stroke="currentColor" y2="6"/><text fill="currentColor" y="9" dy="0.71em">Aug 03</text></g><g class="tick" opacity="1" transform="translate(567.1666666666667,0)"><line stroke="currentColor" y2="6"/><text fill="currentColor" y="9" dy="0.71em">Aug 10</text></g><g class="tick" opacity="1" transform="translate(666.3333333333333,0)"><line stroke="currentColor" y2="6"/><text fill="currentColor" y="9" dy="0.71em">Aug 17</text></g></g><text y="456" x="680" text-anchor="end" style="font-family: Arial, sans-serif; font-size: 12px; fill: rgb(123, 123, 123); font-weight: bold;">Fecha</text><text x="4" text-anchor="start" dominant-baseline="hanging" style="font-family: Arial, sans-serif; font-size: 12px; fill: rgb(123, 123, 123); font-weight: bold;">Distancia_km</text><g id="labels"><text x="269.16666666666663" y="437" text-anchor="middle" alignment-baseline="middle" style="font-family: Arial, sans-serif; font-size: 10px; fill: black; font-weight: bold;"> Pie </text><text x="637.5" y="237.9475" text-anchor="middle" alignment-baseline="middle" style="font-family: Arial, sans-serif; font-size: 10px; fill: black; font-weight: bold;"> Auto </text><text x="609.1666666666667" y="383.25" text-anchor="middle" alignment-baseline="middle" style="font-family: Arial, sans-serif; font-size: 10px; fill: black; font-weight: bold;"> Subte </text><text x="113.33333333333333" y="424.5" text-anchor="middle" alignment-baseline="middle" style="font-family: Arial, sans-serif; font-size: 10px; fill: black; font-weight: bold;"> Colectivo </text></g></g><text x="4" y="4" style="font-family: Arial, sans-serif; font-size: 12px; fill: black; font-weight: bold; dominant-baseline: hanging;"/></g></g></svg>