<svg xmlns="http://www.w3.org/2000/svg" width="700" height="500"><rect width="700" height="500" x="0" y="0" fill="#FFFFFF" id="background"/><g transform="translate(50,100)" id="viz"><g fill="none" font-size="10" font-family="sans-serif" text-anchor="middle"><path class="domain" stroke="currentColor" d="M0.5,0.5H600.5"/><g class="tick" opacity="1" transform="translate(43.73177842565597,0)"><line stroke="currentColor" y2="-6"/><text fill="currentColor" y="-9" dy="3.4641016151377544" dx="3.4641016151377544" text-anchor="start" transform="rotate(-45)"> Lunes </text></g><g class="tick" opacity="1" transform="translate(129.1545189504373,0)"><line stroke="currentColor" y2="-6"/><text fill="currentColor" y="-9" dy="3.4641016151377544" dx="3.4641016151377544" text-anchor="start" transform="rotate(-45)"> Viernes </text></g><g class="tick" opacity="1" transform="translate(214.57725947521865,0)"><line stroke="currentColor" y2="-6"/><text fill="currentColor" y="-9" dy="3.4641016151377544" dx="3.4641016151377544" text-anchor="start" transform="rotate(-45)"> Jueves </text></g><g class="tick" opacity="1" transform="translate(300,0)"><line stroke="currentColor" y2="-6"/><text fill="currentColor" y="-9" dy="3.4641016151377544" dx="3.4641016151377544" text-anchor="start" transform="rotate(-45)"> Miercoles </text></g><g class="tick" opacity="1" transform="translate(385.4227405247814,0)"><line stroke="currentColor" y2="-6"/><text fill="currentColor" y="-9" dy="3.4641016151377544" dx="3.4641016151377544" text-anchor="start" transform="rotate(-45)"> Domingo </text></g><g class="tick" opacity="1" transform="translate(470.84548104956275,0)"><line stroke="currentColor" y2="-6"/><text fill="currentColor" y="-9" dy="3.4641016151377544" dx="3.4641016151377544" text-anchor="start" transform="rotate(-45)"> Sabado </text></g><g class="tick" opacity="1" transform="translate(556.268221574344,0)"><line stroke="currentColor" y2="-6"/><text fill="currentColor" y="-9" dy="3.4641016151377544" dx="3.4641016151377544" text-anchor="start" transform="rotate(-45)"> Martes </text></g></g><g fill="none" font-size="10" font-family="sans-serif" text-anchor="end"><path class="domain" stroke="currentColor" d="M0.5,0.5V343.35714285714283"/><g class="tick" opacity="1" transform="translate(0,43.6205016357688)"><line stroke="currentColor" x2="-6"/><text fill="currentColor" x="-9" dy="0.32em"> Pie </text></g><g class="tick" opacity="1" transform="translate(0,128.8258814976372)"><line stroke="currentColor" x2="-6"/><text fill="currentColor" x="-9" dy="0.32em"> Auto </text></g><g class="tick" opacity="1" transform="translate(0,214.0312613595056)"><line stroke="currentColor" x2="-6"/><text fill="currentColor" x="-9" dy="0.32em"> Subte </text></g><g class="tick" opacity="1" transform="translate(0,299.23664122137404)"><line stroke="currentColor" x2="-6"/><text fill="currentColor" x="-9" dy="0.32em"> Colectivo </text></g></g><text dx="-9" dy="-9" style="text-anchor: end; font-family: Arial, sans-serif; font-size: 12px; fill: rgb(123, 123, 123); font-weight: bold;">Transporte</text><text x="430.6280297426074" y="430.6280297426074" dx="3.4641016151377544" dy="-3.4641016151377544" transform="rotate(-45)" style="text-anchor: start; font-family: Arial, sans-serif; font-size: 12px; fill: rgb(123, 123, 123); font-weight: bold;">Día</text><rect x="35.66645292155285" y="35.66126000469145" rx="0" ry="0" width="16.463012524241204" height="16.463012524241204" style="fill: rgb(214, 222, 236);"/><rect x="122.17844061746933" y="36.75050717582658" rx="0" ry="0" width="14.284518181970952" height="14.284518181970952" style="fill: rgb(201, 213, 232);"/><rect x="205.94358988753913" y="35.09291592111505" rx="0" ry="0" width="17.599700691394006" height="17.599700691394006" style="fill: rgb(203, 214, 232);"/><rect x="285.57327985403936" y="29.29986536283395" rx="0" ry="0" width="29.185801807956214" height="29.185801807956214" style="fill: rgb(118, 153, 205);"/><rect x="374.37126912544755" y="32.67511410946075" rx="0" ry="0" width="22.435304314702613" height="22.435304314702613" style="fill: rgb(176, 195, 224);"/><rect x="463.3907678587053" y="36.271872317937174" rx="0" ry="0" width="15.241787897749756" height="15.241787897749756" style="fill: rgb(214, 222, 236);"/><rect x="549.4775097921058" y="36.935873726556395" rx="0" ry="0" width="13.91378508051131" height="13.91378508051131" style="fill: rgb(206, 217, 233);"/><rect x="343.731778425656" y="87.24100327153761" rx="0" ry="0" width="83.71428571428571" height="83.71428571428571" style="fill: rgb(5, 70, 168);"/><rect x="433.5476489327789" y="91.63413325387916" rx="0" ry="0" width="74.92802574960263" height="74.92802574960263" style="fill: rgb(63, 112, 187);"/><rect x="87.81188864534116" y="87.58933506556681" rx="0" ry="0" width="83.01762212622731" height="83.01762212622731" style="fill: rgb(5, 70, 168);"/><rect x="191.0491180383872" y="105.40382393383152" rx="0" ry="0" width="47.388644389697895" height="47.388644389697895" style="fill: rgb(155, 180, 217);"/><rect x="275.8667997666566" y="104.79876513731958" rx="0" ry="0" width="48.598761982721754" height="48.598761982721754" style="fill: rgb(172, 192, 222);"/><rect x="531.544666920885" y="104.20841071720392" rx="0" ry="0" width="49.77947082295308" height="49.77947082295308" style="fill: rgb(169, 190, 221);"/><rect x="21.247958069840223" y="106.44814501484723" rx="0" ry="0" width="45.30000222766647" height="45.30000222766647" style="fill: rgb(197, 210, 230);"/><rect x="274.6997726653298" y="188.8371178978612" rx="0" ry="0" width="50.932816185375344" height="50.932816185375344" style="fill: rgb(179, 197, 225);"/><rect x="464.78922795471107" y="293.28647199954816" rx="0" ry="0" width="12.44486770573827" height="12.44486770573827" style="fill: rgb(239, 241, 244);"/><rect x="122.36380716819914" y="292.55201331216165" rx="0" ry="0" width="13.91378508051131" height="13.91378508051131" style="fill: rgb(237, 240, 243);"/><rect x="292.54528680914257" y="291.8880119035424" rx="0" ry="0" width="15.241787897749756" height="15.241787897749756" style="fill: rgb(238, 240, 244);"/><rect x="549.4775097921058" y="292.55201331216165" rx="0" ry="0" width="13.91378508051131" height="13.91378508051131" style="fill: rgb(242, 243, 245);"/><g id="labels"><g transform="translate(43.89795918367346,43.89276626681205)"><text x="0" y="0" text-anchor="middle" dominant-baseline="text-before-edge" transform="translate(0,0)"/></g><g transform="translate(129.3206997084548,43.89276626681205)"><text x="0" y="0" text-anchor="middle" dominant-baseline="text-before-edge" transform="translate(0,0)"/></g><g transform="translate(214.74344023323616,43.89276626681205)"><text x="0" y="0" text-anchor="middle" dominant-baseline="text-before-edge" transform="translate(0,0)"/></g><g transform="translate(300.16618075801745,43.89276626681205)"><text x="0" y="0" text-anchor="middle" dominant-baseline="text-before-edge" transform="translate(0,0)"/></g><g transform="translate(385.5889212827988,43.89276626681205)"><text x="0" y="0" text-anchor="middle" dominant-baseline="text-before-edge" transform="translate(0,0)"/></g><g transform="translate(471.0116618075802,43.89276626681205)"><text x="0" y="0" text-anchor="middle" dominant-baseline="text-before-edge" transform="translate(0,0)"/></g><g transform="translate(556.4344023323615,43.89276626681205)"><text x="0" y="0" text-anchor="middle" dominant-baseline="text-before-edge" transform="translate(0,0)"/></g><g transform="translate(385.5889212827988,129.09814612868047)"><text x="0" y="0" text-anchor="middle" dominant-baseline="text-before-edge" transform="translate(0,0)"/></g><g transform="translate(471.0116618075802,129.09814612868047)"><text x="0" y="0" text-anchor="middle" dominant-baseline="text-before-edge" transform="translate(0,0)"/></g><g transform="translate(129.3206997084548,129.09814612868047)"><text x="0" y="0" text-anchor="middle" dominant-baseline="text-before-edge" transform="translate(0,0)"/></g><g transform="translate(214.74344023323616,129.09814612868047)"><text x="0" y="0" text-anchor="middle" dominant-baseline="text-before-edge" transform="translate(0,0)"/></g><g transform="translate(300.16618075801745,129.09814612868047)"><text x="0" y="0" text-anchor="middle" dominant-baseline="text-before-edge" transform="translate(0,0)"/></g><g transform="translate(556.4344023323615,129.09814612868047)"><text x="0" y="0" text-anchor="middle" dominant-baseline="text-before-edge" transform="translate(0,0)"/></g><g transform="translate(43.89795918367346,129.09814612868047)"><text x="0" y="0" text-anchor="middle" dominant-baseline="text-before-edge" transform="translate(0,0)"/></g><g transform="translate(300.16618075801745,214.30352599054888)"><text x="0" y="0" text-anchor="middle" dominant-baseline="text-before-edge" transform="translate(0,0)"/></g><g transform="translate(471.0116618075802,299.5089058524173)"><text x="0" y="0" text-anchor="middle" dominant-baseline="text-before-edge" transform="translate(0,0)"/></g><g transform="translate(129.3206997084548,299.5089058524173)"><text x="0" y="0" text-anchor="middle" dominant-baseline="text-before-edge" transform="translate(0,0)"/></g><g transform="translate(300.16618075801745,299.5089058524173)"><text x="0" y="0" text-anchor="middle" dominant-baseline="text-before-edge" transform="translate(0,0)"/></g><g transform="translate(556.4344023323615,299.5089058524173)"><text x="0" y="0" text-anchor="middle" dominant-baseline="text-before-edge" transform="translate(0,0)"/></g></g></g></svg>