<svg xmlns="http://www.w3.org/2000/svg" width="805" height="600"><rect width="805" height="600" x="0" y="0" fill="#FFFFFF" id="background"/><g transform="translate(50,10)" id="viz"><g id="y axis" fill="none" font-size="10" font-family="sans-serif" text-anchor="end"><path class="domain" stroke="currentColor" d="M-6,560.5H0.5V0.5H-6"/><g class="tick" opacity="1" transform="translate(0,560.5)"><line stroke="currentColor" x2="-6"/><text fill="currentColor" x="-9" dy="0.32em">0</text></g><g class="tick" opacity="1" transform="translate(0,480.50000000000006)"><line stroke="currentColor" x2="-6"/><text fill="currentColor" x="-9" dy="0.32em">5</text></g><g class="tick" opacity="1" transform="translate(0,400.5)"><line stroke="currentColor" x2="-6"/><text fill="currentColor" x="-9" dy="0.32em">10</text></g><g class="tick" opacity="1" transform="translate(0,320.5)"><line stroke="currentColor" x2="-6"/><text fill="currentColor" x="-9" dy="0.32em">15</text></g><g class="tick" opacity="1" transform="translate(0,240.50000000000003)"><line stroke="currentColor" x2="-6"/><text fill="currentColor" x="-9" dy="0.32em">20</text></g><g class="tick" opacity="1" transform="translate(0,160.5)"><line stroke="currentColor" x2="-6"/><text fill="currentColor" x="-9" dy="0.32em">25</text></g><g class="tick" opacity="1" transform="translate(0,80.50000000000003)"><line stroke="currentColor" x2="-6"/><text fill="currentColor" x="-9" dy="0.32em">30</text></g><g class="tick" opacity="1" transform="translate(0,0.5)"><line stroke="currentColor" x2="-6"/><text fill="currentColor" x="-9" dy="0.32em">35</text></g><text x="4" text-anchor="start" dominant-baseline="hanging" style="font-family: Arial, sans-serif; font-size: 12px; fill: rgb(123, 123, 123); font-weight: bold;">Velocidad_kmh</text></g><g id="x axis" transform="translate(0,560)" fill="none" font-size="10" font-family="sans-serif" text-anchor="middle"><path class="domain" stroke="currentColor" d="M0.5,6V0.5H745.5V6"/><g class="tick" opacity="1" transform="translate(96.82533112582782,0)"><line stroke="currentColor" y2="6"/><text fill="currentColor" y="9" dy="0.71em"> Auto </text></g><g class="tick" opacity="1" transform="translate(280.6084437086093,0)"><line stroke="currentColor" y2="6"/><text fill="currentColor" y="9" dy="0.71em"> Subte </text></g><g class="tick" opacity="1" transform="translate(464.3915562913907,0)"><line stroke="currentColor" y2="6"/><text fill="currentColor" y="9" dy="0.71em"> Pie </text></g><g class="tick" opacity="1" transform="translate(648.1746688741722,0)"><line stroke="currentColor" y2="6"/><text fill="currentColor" y="9" dy="0.71em"> Colectivo </text></g><text x="745" dy="-5" text-anchor="end" style="font-family: Arial, sans-serif; font-size: 12px; fill: rgb(123, 123, 123); font-weight: bold;">Transporte</text></g><g id="shapes"><g id=" Auto " transform="translate(9.867549668874176 ,0)" style="fill: rgb(31, 119, 180);"><path d="M86.95778145695364,600C86.95778145695364,560,86.95778145695364,560,86.95778145695364,520C86.95778145695364,480,105.861646991074,480,105.861646991074,440C105.861646991074,400,102.08087388424994,400,102.08087388424994,359.99999999999994C102.08087388424994,320,132.3270587388425,320,132.3270587388425,280C132.3270587388425,240,136.10783184566657,240,136.10783184566657,199.99999999999997C136.10783184566657,160,94.51932767060178,160,94.51932767060178,120.00000000000001C94.51932767060178,80,94.51932767060178,80,94.51932767060178,39.999999999999986C94.51932767060178,0,86.95778145695364,0,86.95778145695364,-39.999999999999986L86.95778145695364,-39.999999999999986C86.95778145695364,0,79.3962352433055,0,79.3962352433055,39.999999999999986C79.3962352433055,80,79.3962352433055,80,79.3962352433055,120.00000000000001C79.3962352433055,160,37.80773106824071,160,37.80773106824071,199.99999999999997C37.80773106824071,240,41.588504175064784,240,41.588504175064784,280C41.588504175064784,320,71.83468902965735,320,71.83468902965735,359.99999999999994C71.83468902965735,400,68.05391592283328,400,68.05391592283328,440C68.05391592283328,480,86.95778145695364,480,86.95778145695364,520C86.95778145695364,560,86.95778145695364,560,86.95778145695364,600Z" style="stroke: none;"/></g><g id=" Subte " transform="translate(193.65066225165563 ,0)" style="fill: rgb(214, 39, 40);"><path d="M86.95778145695364,600C86.95778145695364,560,86.95778145695364,560,86.95778145695364,520C86.95778145695364,480,86.95778145695364,480,86.95778145695364,440C86.95778145695364,400,86.95778145695364,400,86.95778145695364,359.99999999999994C86.95778145695364,320,94.51932767060178,320,94.51932767060178,280C94.51932767060178,240,98.30010077742584,240,98.30010077742584,199.99999999999997C98.30010077742584,160,86.95778145695364,160,86.95778145695364,120.00000000000001C86.95778145695364,80,86.95778145695364,80,86.95778145695364,39.999999999999986C86.95778145695364,0,86.95778145695364,0,86.95778145695364,-39.999999999999986L86.95778145695364,-39.999999999999986C86.95778145695364,0,86.95778145695364,0,86.95778145695364,39.999999999999986C86.95778145695364,80,86.95778145695364,80,86.95778145695364,120.00000000000001C86.95778145695364,160,75.61546213648143,160,75.61546213648143,199.99999999999997C75.61546213648143,240,79.3962352433055,240,79.3962352433055,280C79.3962352433055,320,86.95778145695364,320,86.95778145695364,359.99999999999994C86.95778145695364,400,86.95778145695364,400,86.95778145695364,440C86.95778145695364,480,86.95778145695364,480,86.95778145695364,520C86.95778145695364,560,86.95778145695364,560,86.95778145695364,600Z" style="stroke: none;"/></g><g id=" Pie " transform="translate(377.4337748344371 ,0)" style="fill: rgb(44, 160, 44);"><path d="M86.95778145695364,600C86.95778145695364,560,173.91556291390728,560,173.91556291390728,520C173.91556291390728,480,98.30010077742584,480,98.30010077742584,440C98.30010077742584,400,86.95778145695364,400,86.95778145695364,359.99999999999994C86.95778145695364,320,86.95778145695364,320,86.95778145695364,280C86.95778145695364,240,86.95778145695364,240,86.95778145695364,199.99999999999997C86.95778145695364,160,86.95778145695364,160,86.95778145695364,120.00000000000001C86.95778145695364,80,86.95778145695364,80,86.95778145695364,39.999999999999986C86.95778145695364,0,86.95778145695364,0,86.95778145695364,-39.999999999999986L86.95778145695364,-39.999999999999986C86.95778145695364,0,86.95778145695364,0,86.95778145695364,39.999999999999986C86.95778145695364,80,86.95778145695364,80,86.95778145695364,120.00000000000001C86.95778145695364,160,86.95778145695364,160,86.95778145695364,199.99999999999997C86.95778145695364,240,86.95778145695364,240,86.95778145695364,280C86.95778145695364,320,86.95778145695364,320,86.95778145695364,359.99999999999994C86.95778145695364,400,75.61546213648143,400,75.61546213648143,440C75.61546213648143,480,0,480,0,520C0,560,86.95778145695364,560,86.95778145695364,600Z" style="stroke: none;"/></g><g id=" Colectivo " transform="translate(561.2168874172186 ,0)" style="fill: rgb(255, 127, 14);"><path d="M86.95778145695364,600C86.95778145695364,560,86.95778145695364,560,86.95778145695364,520C86.95778145695364,480,86.95778145695364,480,86.95778145695364,440C86.95778145695364,400,94.51932767060178,400,94.51932767060178,359.99999999999994C94.51932767060178,320,90.73855456377771,320,90.73855456377771,280C90.73855456377771,240,86.95778145695364,240,86.95778145695364,199.99999999999997C86.95778145695364,160,90.73855456377771,160,90.73855456377771,120.00000000000001C90.73855456377771,80,86.95778145695364,80,86.95778145695364,39.999999999999986C86.95778145695364,0,86.95778145695364,0,86.95778145695364,-39.999999999999986L86.95778145695364,-39.999999999999986C86.95778145695364,0,86.95778145695364,0,86.95778145695364,39.999999999999986C86.95778145695364,80,83.17700835012957,80,83.17700835012957,120.00000000000001C83.17700835012957,160,86.95778145695364,160,86.95778145695364,199.99999999999997C86.95778145695364,240,83.17700835012957,240,83.17700835012957,280C83.17700835012957,320,79.3962352433055,320,79.3962352433055,359.99999999999994C79.3962352433055,400,86.95778145695364,400,86.95778145695364,440C86.95778145695364,480,86.95778145695364,480,86.95778145695364,520C86.95778145695364,560,86.95778145695364,560,86.95778145695364,600Z" style="stroke: none;"/></g></g></g></svg>