<?xml version="1.0"?>
<svg width="700" height="500" xmlns="http://www.w3.org/2000/svg" xmlns:svg="http://www.w3.org/2000/svg">
 <g class="layer">
  <title>Layer 1</title>
  <rect fill="#FFFFFF" height="500" id="background" transform="matrix(1 0 0 1 0 0)" width="700" x="0" y="3"/>
  <g id="viz">
   <g id="shapes">
    <g fill="rgb(33, 151, 255)" id=" Auto " transform="translate(9.84615 0)">
     <path d="m123.85,502.86c0,-32.86 0,-32.86 0,-65.72c0,-32.85 16.05,-32.85 16.05,-65.71c0,-32.86 -3.21,-32.86 -3.21,-65.72c0,-32.85 25.68,-32.85 25.68,-65.71c0,-32.86 3.22,-32.86 3.22,-65.71c0,-32.86 -35.32,-32.86 -35.32,-65.72c0,-32.86 0,-32.86 0,-65.71c0,-32.86 -6.42,-32.86 -6.42,-65.72l0,0c0,32.86 -6.43,32.86 -6.43,65.72c0,32.85 0,32.85 0,65.71c0,32.86 -35.31,32.86 -35.31,65.72c0,32.85 3.21,32.85 3.21,65.71c0,32.86 25.68,32.86 25.68,65.71c0,32.86 -3.21,32.86 -3.21,65.72c0,32.86 16.06,32.86 16.06,65.71c0,32.86 0,32.86 0,65.72z" id="svg_41"/>
    </g>
    <g fill="rgb(152, 82, 217)" id=" Subte " transform="translate(167.385 0)">
     <path d="m123.85,502.86c0,-32.86 0,-32.86 0,-65.72c0,-32.85 0,-32.85 0,-65.71c0,-32.86 0,-32.86 0,-65.72c0,-32.85 6.42,-32.85 6.42,-65.71c0,-32.86 3.21,-32.86 3.21,-65.71c0,-32.86 -9.63,-32.86 -9.63,-65.72c0,-32.86 0,-32.86 0,-65.71c0,-32.86 0,-32.86 0,-65.72l0,0c0,32.86 0,32.86 0,65.72c0,32.85 0,32.85 0,65.71c0,32.86 -9.64,32.86 -9.64,65.72c0,32.85 3.21,32.85 3.21,65.71c0,32.86 6.43,32.86 6.43,65.71c0,32.86 0,32.86 0,65.72c0,32.86 0,32.86 0,65.71c0,32.86 0,32.86 0,65.72z" id="svg_42"/>
    </g>
    <g fill="rgb(19, 90, 225)" id=" Pie " transform="translate(324.923 0)">
     <path d="m123.85,502.86c0,-32.86 73.84,-32.86 73.84,-65.72c0,-32.85 -64.21,-32.85 -64.21,-65.71c0,-32.86 -9.63,-32.86 -9.63,-65.72c0,-32.85 0,-32.85 0,-65.71c0,-32.86 0,-32.86 0,-65.71c0,-32.86 0,-32.86 0,-65.72c0,-32.86 0,-32.86 0,-65.71c0,-32.86 0,-32.86 0,-65.72l0,0c0,32.86 0,32.86 0,65.72c0,32.85 0,32.85 0,65.71c0,32.86 0,32.86 0,65.72c0,32.85 0,32.85 0,65.71c0,32.86 0,32.86 0,65.71c0,32.86 -9.64,32.86 -9.64,65.72c0,32.86 -64.21,32.86 -64.21,65.71c0,32.86 73.85,32.86 73.85,65.72z" id="svg_43"/>
    </g>
    <g fill="rgb(245, 78, 139)" id=" Colectivo " transform="translate(482.462 0)">
     <path d="m123.85,502.86c0,-32.86 0,-32.86 0,-65.72c0,-32.85 0,-32.85 0,-65.71c0,-32.86 6.42,-32.86 6.42,-65.72c0,-32.85 -3.21,-32.85 -3.21,-65.71c0,-32.86 -3.21,-32.86 -3.21,-65.71c0,-32.86 3.21,-32.86 3.21,-65.72c0,-32.86 -3.21,-32.86 -3.21,-65.71c0,-32.86 0,-32.86 0,-65.72l0,0c0,32.86 0,32.86 0,65.72c0,32.85 -3.21,32.85 -3.21,65.71c0,32.86 3.21,32.86 3.21,65.72c0,32.85 -3.21,32.85 -3.21,65.71c0,32.86 -3.22,32.86 -3.22,65.71c0,32.86 6.43,32.86 6.43,65.72c0,32.86 0,32.86 0,65.71c0,32.86 0,32.86 0,65.72z" id="svg_44"/>
    </g>
   </g>
   <g fill="none" font-family="sans-serif" font-size="10" id="x axis" text-anchor="middle" transform="matrix(1 0 0 1 0 0)">
    <path class="domain" d="m50,476l0,-6l640,0l0,6" id="svg_27" stroke="currentColor"/>
    <g class="tick" id="svg_28" transform="translate(83.6923 0)">
     <line id="svg_29" stroke="currentColor" x1="50" x2="50" y1="470" y2="476"/>
     <text fill="currentColor" id="svg_30" x="50" y="479">Auto</text>
    </g>
    <g class="tick" id="svg_31" transform="translate(241.231 0)">
     <line id="svg_32" stroke="currentColor" x1="50" x2="50" y1="470" y2="476"/>
     <text fill="currentColor" id="svg_33" x="50" y="479">Subte</text>
    </g>
    <g class="tick" id="svg_34" transform="translate(398.769 0)">
     <line id="svg_35" stroke="currentColor" x1="50" x2="50" y1="470" y2="476"/>
     <text fill="currentColor" id="svg_36" x="50" y="479">Pie</text>
    </g>
    <g class="tick" id="svg_37" transform="translate(556.308 0)">
     <line id="svg_38" stroke="currentColor" x1="50" x2="50" y1="470" y2="476"/>
     <text fill="currentColor" id="svg_39" x="50" y="479">Colectivo</text>
    </g>
    <text fill="rgb(123, 123, 123)" font-family="Arial, sans-serif" font-size="12px" font-weight="bold" id="svg_40" text-anchor="end" x="690" y="470">Transporte</text>
   </g>
   <g fill="none" font-family="sans-serif" font-size="10" id="y axis" text-anchor="end">
    <path class="domain" d="m44,470l6,0l0,-460l-6,0" id="svg_1" stroke="currentColor"/>
    <g class="tick" id="svg_2" transform="translate(0 460)">
     <line id="svg_3" stroke="currentColor" x1="50" x2="44" y1="10" y2="10"/>
     <text fill="currentColor" id="svg_4" x="41" y="10">0</text>
    </g>
    <g class="tick" id="svg_5" transform="translate(0 394.286)">
     <line id="svg_6" stroke="currentColor" x1="50" x2="44" y1="10" y2="10"/>
     <text fill="currentColor" id="svg_7" x="41" y="10">5</text>
    </g>
    <g class="tick" id="svg_8" transform="translate(0 328.571)">
     <line id="svg_9" stroke="currentColor" x1="50" x2="44" y1="10" y2="10"/>
     <text fill="currentColor" id="svg_10" x="41" y="10">10</text>
    </g>
    <g class="tick" id="svg_11" transform="translate(0 262.857)">
     <line id="svg_12" stroke="currentColor" x1="50" x2="44" y1="10" y2="10"/>
     <text fill="currentColor" id="svg_13" x="41" y="10">15</text>
    </g>
    <g class="tick" id="svg_14" transform="translate(0 197.143)">
     <line id="svg_15" stroke="currentColor" x1="50" x2="44" y1="10" y2="10"/>
     <text fill="currentColor" id="svg_16" x="41" y="10">20</text>
    </g>
    <g class="tick" id="svg_17" transform="translate(0 131.429)">
     <line id="svg_18" stroke="currentColor" x1="50" x2="44" y1="10" y2="10"/>
     <text fill="currentColor" id="svg_19" x="41" y="10">25</text>
    </g>
    <g class="tick" id="svg_20" transform="translate(0 65.7143)">
     <line id="svg_21" stroke="currentColor" x1="50" x2="44" y1="10" y2="10"/>
     <text fill="currentColor" id="svg_22" x="41" y="10">30</text>
    </g>
    <g class="tick" id="svg_23" transform="translate(0 0)">
     <line id="svg_24" stroke="currentColor" x1="50" x2="44" y1="10" y2="10"/>
     <text fill="currentColor" id="svg_25" x="41" y="10">35</text>
    </g>
    <text fill="rgb(123, 123, 123)" font-family="Arial, sans-serif" font-size="12px" font-weight="bold" id="svg_26" text-anchor="start" x="54" y="10">Velocidad_kmh</text>
   </g>
  </g>
 </g>
</svg>